<svg baseProfile="tiny" xmlns="http://www.w3.org/2000/svg" preserveAspectRatio="xMinYMin meet" xmlns:xlink="http://www.w3.org/1999/xlink" xmlns:serif="http://www.serif.com/" viewBox="0 0 445 420" width="445" height="420"><g transform="translate(310 125)"><g transform="translate(0 .9) scale(1.125)"><path d="M24 21.194V22.4H13.227v-1.206c1.801-.032 2.686-.412 2.686-1.428 0-.349-.131-.762-.295-1.238l-1.215-2.957H6.017a980.427 980.427 0 0 1-1.3 3.275c-.787 1.927.293 2.162 2.147 2.347l.011.001h.002L6.875 22.4H0v-1.206c.883-.159 1.604-.316 1.898-1.174L8.906 2.506 7.857 0h5.927l8.285 20.02c.147.396.401.651.733.824.331.175.74.271 1.198.35zm-10.105-8.226l-3.218-8.252c-.528 1.408-1.901 5.067-3.098 8.252h6.316z" fill="#0f1987"/></g></g><g transform="translate(310 160)"><g transform="translate(0 .9) scale(1.125)"><path d="M24 21.194V22.4H13.227v-1.206c1.801-.032 2.686-.412 2.686-1.428 0-.349-.131-.762-.295-1.238l-1.215-2.957H6.017a980.427 980.427 0 0 1-1.3 3.275c-.787 1.927.293 2.162 2.147 2.347l.011.001h.002L6.875 22.4H0v-1.206c.883-.159 1.604-.316 1.898-1.174L8.906 2.506 7.857 0h5.927l8.285 20.02c.147.396.401.651.733.824.331.175.74.271 1.198.35zm-10.105-8.226l-3.218-8.252c-.528 1.408-1.901 5.067-3.098 8.252h6.316z" fill="#00883a"/></g></g><g transform="translate(280 225)"><g transform="translate(0 .667) scale(.83333)"><path d="M24 21.194V22.4H13.227v-1.206c1.801-.032 2.686-.412 2.686-1.428 0-.349-.131-.762-.295-1.238l-1.215-2.957H6.017a980.427 980.427 0 0 1-1.3 3.275c-.787 1.927.293 2.162 2.147 2.347l.011.001h.002L6.875 22.4H0v-1.206c.883-.159 1.604-.316 1.898-1.174L8.906 2.506 7.857 0h5.927l8.285 20.02c.147.396.401.651.733.824.331.175.74.271 1.198.35zm-10.105-8.226l-3.218-8.252c-.528 1.408-1.901 5.067-3.098 8.252h6.316z" fill="#0f1987"/></g></g><g transform="translate(200 205)"><g transform="translate(0 .667) scale(.83333)"><path d="M24 21.194V22.4H13.227v-1.206c1.801-.032 2.686-.412 2.686-1.428 0-.349-.131-.762-.295-1.238l-1.215-2.957H6.017a980.427 980.427 0 0 1-1.3 3.275c-.787 1.927.293 2.162 2.147 2.347l.011.001h.002L6.875 22.4H0v-1.206c.883-.159 1.604-.316 1.898-1.174L8.906 2.506 7.857 0h5.927l8.285 20.02c.147.396.401.651.733.824.331.175.74.271 1.198.35zm-10.105-8.226l-3.218-8.252c-.528 1.408-1.901 5.067-3.098 8.252h6.316z" fill="#00883a"/></g></g><g transform="translate(225 205)"><g transform="translate(0 .667) scale(.83333)"><path d="M24 21.194V22.4H13.227v-1.206c1.801-.032 2.686-.412 2.686-1.428 0-.349-.131-.762-.295-1.238l-1.215-2.957H6.017a980.427 980.427 0 0 1-1.3 3.275c-.787 1.927.293 2.162 2.147 2.347l.011.001h.002L6.875 22.4H0v-1.206c.883-.159 1.604-.316 1.898-1.174L8.906 2.506 7.857 0h5.927l8.285 20.02c.147.396.401.651.733.824.331.175.74.271 1.198.35zm-10.105-8.226l-3.218-8.252c-.528 1.408-1.901 5.067-3.098 8.252h6.316z" fill="#fff"/></g></g><g transform="translate(310 195)"><g transform="translate(0 .9) scale(1.125)"><path d="M24 21.194V22.4H13.227v-1.206c1.801-.032 2.686-.412 2.686-1.428 0-.349-.131-.762-.295-1.238l-1.215-2.957H6.017a980.427 980.427 0 0 1-1.3 3.275c-.787 1.927.293 2.162 2.147 2.347l.011.001h.002L6.875 22.4H0v-1.206c.883-.159 1.604-.316 1.898-1.174L8.906 2.506 7.857 0h5.927l8.285 20.02c.147.396.401.651.733.824.331.175.74.271 1.198.35zm-10.105-8.226l-3.218-8.252c-.528 1.408-1.901 5.067-3.098 8.252h6.316z" fill="#fff"/></g></g><g transform="translate(425 195)"><path fill="#06893A" d="M8.844 1.491L7.269 0 0 6.918l7.263 6.957 1.581-1.523L3.33 6.918z"/></g><g transform="translate(205 230)"><title>icon-arrow-grey</title><defs><path d="M6.775 0C9.365 2.492 11.713 4.819 14 7c-2.59 2.488-4.94 4.822-7.225 7-.595-.567-1.044-1.004-1.612-1.546l4.485-4.355H0V5.901h9.648c-1.5-1.445-2.978-2.91-4.485-4.346C5.705 1.025 6.3.463 6.775 0z" id="a"/></defs><g fill="none" fill-rule="evenodd"><mask id="b" fill="#fff"><use xlink:href="#a"/></mask><g mask="url(#b)" fill="#232323"><path d="M0 0h14v14H0z"/></g></g></g><g transform="translate(225 230)"><title>icon-arrow-blue</title><defs><path d="M6.775 0C9.365 2.492 11.713 4.819 14 7c-2.59 2.488-4.94 4.822-7.225 7-.595-.567-1.044-1.004-1.612-1.546l4.485-4.355H0V5.901h9.648c-1.5-1.445-2.978-2.91-4.485-4.346C5.705 1.025 6.3.463 6.775 0z" id="c"/></defs><g fill="none" fill-rule="evenodd"><mask id="d" fill="#fff"><use xlink:href="#c"/></mask><g mask="url(#d)" fill="#0F1987"><path d="M0 0h14v14H0z"/></g></g></g><g transform="translate(275 285)"><title>Shape</title><defs><path d="M7.225 0C4.635 2.492 2.287 4.819 0 7c2.59 2.488 4.94 4.822 7.225 7 .595-.567 1.044-1.004 1.612-1.546L4.352 8.099H14V5.901H4.352c1.5-1.445 2.978-2.91 4.485-4.346C8.295 1.025 7.7.463 7.225 0z" id="e"/></defs><g fill="none" fill-rule="evenodd"><use fill="#232323" fill-rule="nonzero" transform="matrix(0 -1 -1 0 14 14)" xlink:href="#e"/></g></g><g transform="translate(20 395)"><title>Shape</title><defs><path d="M7.225 0C4.635 2.492 2.287 4.819 0 7c2.59 2.488 4.94 4.822 7.225 7 .595-.567 1.044-1.004 1.612-1.546L4.352 8.099H14V5.901H4.352c1.5-1.445 2.978-2.91 4.485-4.346C8.295 1.025 7.7.463 7.225 0z" id="f"/></defs><g fill="none" fill-rule="evenodd"><use fill="#00883A" fill-rule="nonzero" transform="matrix(0 -1 -1 0 14 14)" xlink:href="#f"/></g></g><g transform="translate(40 395)"><title>arrow down</title><g><g transform="translate(-309 -706)"><g transform="translate(308 620)"><g transform="translate(0 46)"><g transform="translate(1 40)"><defs><filter id="g" filterUnits="userSpaceOnUse" x="0" y="0" width="11" height="11"><feColorMatrix values="1 0 0 0 0 0 1 0 0 0 0 0 1 0 0 0 0 0 1 0"/></filter></defs><mask maskUnits="userSpaceOnUse" x="0" y="0" width="11" height="11" id="h"><g filter="url(#g)"><path fill="#FFF" d="M0 5.323C1.958 7.358 3.786 9.203 5.5 11 7.455 8.965 9.289 7.119 11 5.323c-.445-.468-.789-.819-1.215-1.267L6.363 7.58V0H4.636v7.58C3.501 6.402 2.351 5.241 1.222 4.057.805 4.482.364 4.95 0 5.323z"/></g></mask><g mask="url(#h)"><path fill="#D71919" d="M0 0h11v11H0z"/></g></g></g></g></g></g></g><g transform="translate(425 215)"><g><defs><path id="i" d="M14 1.693c-2.492 2.59-4.819 4.938-7 7.225-2.488-2.591-4.823-4.939-7-7.225C.567 1.098 1.004.649 1.546.081L5.9 4.565 7 5.65l1.1-1.085c1.443-1.499 2.908-2.978 4.346-4.484.529.542 1.091 1.137 1.554 1.612z"/></defs><clipPath id="j"><use xlink:href="#i" overflow="visible"/></clipPath><g clip-path="url(#j)"><g><defs><path id="k" d="M0 .081h14v9H0z"/></defs><clipPath id="l"><use xlink:href="#k" overflow="visible"/></clipPath><g clip-path="url(#l)"><defs><path id="m" d="M0 .081h14v9H0z"/></defs><clipPath id="n"><use xlink:href="#m" overflow="visible"/></clipPath><g clip-path="url(#n)"><defs><path id="o" d="M0 .081h14v9H0z"/></defs><clipPath id="p"><use xlink:href="#o" overflow="visible"/></clipPath><path clip-path="url(#p)" fill="#00883A" d="M-5-4.919h24v19H-5z"/></g></g></g></g></g></g><g transform="translate(425 230)"><g><defs><path id="q" d="M-.001 7.306c2.492-2.59 4.819-4.938 7-7.225 2.488 2.591 4.822 4.939 7 7.225-.567.594-1.004 1.044-1.546 1.612L8.099 4.434 7 3.349 5.9 4.434C4.456 5.933 2.991 7.411 1.554 8.918 1.024 8.376.462 7.781-.001 7.306z"/></defs><clipPath id="r"><use xlink:href="#q" overflow="visible"/></clipPath><g clip-path="url(#r)"><g><defs><path id="s" d="M-.001-.082h14v9h-14z"/></defs><clipPath id="t"><use xlink:href="#s" overflow="visible"/></clipPath><g clip-path="url(#t)"><defs><path id="u" d="M-.001-.082h14v9h-14z"/></defs><clipPath id="v"><use xlink:href="#u" overflow="visible"/></clipPath><g clip-path="url(#v)"><defs><path id="w" d="M-.001-.082h14v9h-14z"/></defs><clipPath id="x"><use xlink:href="#w" overflow="visible"/></clipPath><path clip-path="url(#x)" fill="#00883A" d="M-5.001-5.082h24v19h-24z"/></g></g></g></g></g></g><g transform="translate(425 245)"><path fill="#06893A" d="M0 12.459l1.584 1.5 7.313-6.96L1.59 0 0 1.532l5.548 5.467z"/></g><g transform="translate(60 395)"><title>icon-arrow-green100</title><defs><path d="M6.775 0C9.365 2.492 11.713 4.819 14 7c-2.59 2.488-4.94 4.822-7.225 7-.595-.567-1.044-1.004-1.612-1.546l4.485-4.355H0V5.901h9.648c-1.5-1.445-2.978-2.91-4.485-4.346C5.705 1.025 6.3.463 6.775 0z" id="y"/></defs><g fill="none" fill-rule="evenodd"><mask id="z" fill="#fff"><use xlink:href="#y"/></mask><g mask="url(#z)" fill="#00883A"><path d="M0 0h14v14H0z"/></g></g></g><g transform="translate(80 395)"><title>icon-arrow-green60</title><defs><path d="M6.775 0C9.365 2.492 11.713 4.819 14 7c-2.59 2.488-4.94 4.822-7.225 7-.595-.567-1.044-1.004-1.612-1.546l4.485-4.355H0V5.901h9.648c-1.5-1.445-2.978-2.91-4.485-4.346C5.705 1.025 6.3.463 6.775 0z" id="A"/></defs><g fill="none" fill-rule="evenodd"><mask id="B" fill="#fff"><use xlink:href="#A"/></mask><g mask="url(#B)" fill="#66B889"><path d="M0 0h14v14H0z"/></g></g></g><g transform="translate(100 395)"><title>icon-arrow-green80</title><defs><path d="M6.775 0C9.365 2.492 11.713 4.819 14 7c-2.59 2.488-4.94 4.822-7.225 7-.595-.567-1.044-1.004-1.612-1.546l4.485-4.355H0V5.901h9.648c-1.5-1.445-2.978-2.91-4.485-4.346C5.705 1.025 6.3.463 6.775 0z" id="C"/></defs><g fill="none" fill-rule="evenodd"><mask id="D" fill="#fff"><use xlink:href="#C"/></mask><g mask="url(#D)" fill="#33A061"><path d="M0 0h14v14H0z"/></g></g></g><g transform="translate(120 395)"><title>icon-arrow-grey</title><defs><path d="M6.775 0C9.365 2.492 11.713 4.819 14 7c-2.59 2.488-4.94 4.822-7.225 7-.595-.567-1.044-1.004-1.612-1.546l4.485-4.355H0V5.901h9.648c-1.5-1.445-2.978-2.91-4.485-4.346C5.705 1.025 6.3.463 6.775 0z" id="E"/></defs><g fill="none" fill-rule="evenodd"><mask id="F" fill="#fff"><use xlink:href="#E"/></mask><g mask="url(#F)" fill="#232323"><path d="M0 0h14v14H0z"/></g></g></g><g transform="translate(140 395)"><g><path fill="#FFF" d="M7.225 0C4.635 2.492 2.287 4.819 0 7c2.59 2.488 4.94 4.822 7.225 7 .595-.566 1.044-1.004 1.612-1.546C7.291 10.953 5.694 9.4 4.353 8.1H14V5.901H4.353c1.5-1.444 2.978-2.909 4.484-4.346C8.295 1.024 7.699.463 7.225 0z"/></g><title>Shape</title><g><g transform="matrix(0 -1 -1 0 14 14)"><path fill="#00883A" d="M14 6.775C11.508 9.365 9.182 11.713 7 14c-2.488-2.59-4.822-4.939-7-7.225.566-.595 1.004-1.045 1.546-1.612C3.046 6.709 4.6 8.307 5.9 9.646V0h2.2v9.646c1.443-1.498 2.908-2.978 4.346-4.483.53.542 1.091 1.138 1.554 1.612z"/></g></g></g><g transform="translate(160 395)"><g><path fill="#FFF" d="M7.225 0C4.635 2.492 2.287 4.819 0 7c2.59 2.488 4.94 4.822 7.225 7 .595-.566 1.044-1.004 1.612-1.546C7.291 10.953 5.694 9.4 4.353 8.1H14V5.901H4.353c1.5-1.444 2.978-2.909 4.484-4.346C8.295 1.024 7.699.463 7.225 0z"/></g><title>Shape</title></g><g transform="translate(365 245)"><path fill="#00883A" d="M22 11.353C18.084 7.283 14.428 3.594 11 0 7.09 4.07 3.422 7.763 0 11.353c.891.935 1.578 1.64 2.43 2.534 2.357-2.43 4.797-4.94 6.842-7.047V22h3.456V6.84c2.269 2.356 4.571 4.679 6.83 7.047.832-.851 1.714-1.787 2.442-2.534z"/></g><g transform="translate(180 395)"><path fill="#00883A" d="M0 7.225C2.492 4.635 4.819 2.287 7 0c2.488 2.59 4.822 4.94 7 7.225-.567.595-1.004 1.044-1.546 1.612L8.099 4.352V14H5.901V4.352c-1.445 1.5-2.91 2.978-4.346 4.485C1.025 8.295.463 7.7 0 7.225z"/></g><g transform="translate(365 275)"><path fill="#FFF" d="M22 11.353C18.084 7.283 14.428 3.594 11 0 7.09 4.07 3.422 7.763 0 11.353c.891.935 1.578 1.64 2.43 2.534 2.357-2.43 4.797-4.94 6.842-7.047V22h3.456V6.84c2.269 2.356 4.571 4.679 6.83 7.047.832-.851 1.714-1.787 2.442-2.534z"/></g><g transform="translate(200 395)"><path fill="#FFF" d="M0 7.225C2.492 4.635 4.819 2.287 7 0c2.488 2.59 4.822 4.94 7 7.225-.567.595-1.004 1.044-1.546 1.612L8.099 4.352V14H5.901V4.352c-1.445 1.5-2.91 2.978-4.346 4.485C1.025 8.295.463 7.7 0 7.225z"/></g><g transform="translate(220 395)"><title>icon-arrow-white</title><defs><path d="M6.775 0C9.365 2.492 11.713 4.819 14 7c-2.59 2.488-4.94 4.822-7.225 7-.595-.567-1.044-1.004-1.612-1.546l4.485-4.355H0V5.901h9.648c-1.5-1.445-2.978-2.91-4.485-4.346C5.705 1.025 6.3.463 6.775 0z" id="G"/></defs><g fill="none" fill-rule="evenodd"><mask id="H" fill="#fff"><use xlink:href="#G"/></mask><g mask="url(#H)" fill="#FFF"><path d="M0 0h14v14H0z"/></g></g></g><g transform="translate(210 340)"><g transform="translate(-2.486 -2.429) scale(.41715)"><g transform="matrix(.69468 0 0 .70771 -.971 7.41)"><path d="M22.619 14.692l11.577-9.715v39.758l-11.845-9.94v-.01H11.628V14.692h10.991z"/></g><g transform="translate(-28.093 -9.92) scale(1.9397)"><path d="M28.042 12.063s3.882 1.978 3.882 5.993c0 3.944-3.874 5.887-3.874 5.887" fill="none" stroke="#000" stroke-width="1.54"/></g><g transform="translate(-47.926 -25.7) scale(2.81619)"><path d="M28.042 12.063s3.882 1.978 3.882 5.993c0 3.944-3.874 5.887-3.874 5.887" fill="none" stroke="#000" stroke-width="1.06"/></g></g></g><g transform="translate(235 340)"><g transform="translate(-2.486 -2.429) scale(.41715)"><g transform="matrix(.69468 0 0 .70771 -.971 7.41)"><path d="M22.619 14.692l11.577-9.715v39.758l-11.845-9.94v-.01H11.628V14.692h10.991z" fill="#00883a"/></g><g transform="translate(-28.093 -9.92) scale(1.9397)"><path d="M28.042 12.063s3.882 1.978 3.882 5.993c0 3.944-3.874 5.887-3.874 5.887" fill="none" stroke="#00883a" stroke-width="1.54"/></g><g transform="translate(-47.926 -25.7) scale(2.81619)"><path d="M28.042 12.063s3.882 1.978 3.882 5.993c0 3.944-3.874 5.887-3.874 5.887" fill="none" stroke="#00883a" stroke-width="1.06"/></g></g></g><g transform="translate(365 305)"><title>Path</title><g><g transform="translate(-3 -4)"><g><path fill="#00883A" stroke="#00883A" d="M20.521 8.38l1.739 1.356-9.386 12.035-6.614-7.062 1.61-1.506 4.849 5.181z"/></g></g></g></g><g transform="translate(260 340)"><title>Path</title><g><g transform="translate(-3 -4)"><g><path fill="#FFF" stroke="#FFF" d="M15.407 7.64l1.154.898-6.219 7.973-4.382-4.678 1.067-.998 3.212 3.433z"/></g></g></g></g><g transform="translate(0 340)"><title>Path</title><g><g transform="translate(-3 -4)"><g><path fill="#FFF" stroke="#FFF" d="M20.521 8.38l1.739 1.356-9.386 12.035-6.614-7.062 1.61-1.506 4.849 5.181z"/></g></g></g></g><g transform="translate(285 340)"><title>icon-clock-black</title><g fill="none" fill-rule="evenodd"><path d="M8 0c4.41 0 8 3.59 8 8s-3.59 8-8 8-8-3.59-8-8 3.59-8 8-8zm-.744 8.651l4.056 2.028.67-1.34-3.238-1.618V2.977H7.256V8.65z" fill="#232323" fill-rule="nonzero"/></g></g><g transform="translate(310 340)"><defs><path id="I" d="M18.97 15.97h10.5v3h-10.5v10.5h-3v-10.5H5.47v-3h10.5V5.47h3v10.5z"/></defs><g fill="none" fill-rule="evenodd" transform="translate(-7 -7)"><use fill="#232323" transform="rotate(45 17.47 17.47)" xlink:href="#I"/></g></g><g transform="translate(335 340)"><defs><path id="J" d="M18.97 15.97h10.5v3h-10.5v10.5h-3v-10.5H5.47v-3h10.5V5.47h3v10.5z"/></defs><g fill="none" fill-rule="evenodd" transform="translate(-7 -7)"><use fill="#00883A" transform="rotate(45 17.47 17.47)" xlink:href="#J"/></g></g><g transform="translate(360 340)"><defs><path id="K" d="M18.97 15.97h10.5v3h-10.5v10.5h-3v-10.5H5.47v-3h10.5V5.47h3v10.5z"/></defs><g fill="none" fill-rule="evenodd" transform="translate(-7 -7)"><use fill="#66B889" transform="rotate(45 17.47 17.47)" xlink:href="#K"/></g></g><g transform="translate(0 370)"><g transform="translate(-7 -7)"><g transform="rotate(45 17.47 17.47)"><path fill="#D71919" d="M15.954 15.969V5.47h3v10.502l10.5-.002.001 3.001-10.501-.001.001 10.501-3.001-.001.001-10.499h-10.5v-2.999l10.499-.003z"/></g></g></g><g transform="translate(240 395)"><title>plus</title><path fill="#00883A" d="M6.001 4.667L10.643 0l1.325 1.333L7.325 6l4.643 4.665-1.325 1.334-4.642-4.665L1.358 12 .032 10.666 4.675 6 .033 1.335 1.359.002l4.642 4.665z"/></g><g transform="translate(260 395)"><title>plus</title><path fill="#D71919" d="M6.001 4.667L10.642 0l1.326 1.333L7.325 6l4.643 4.665-1.326 1.334-4.641-4.665L1.358 12 .032 10.666 4.675 6 .033 1.335 1.359.002l4.642 4.665z"/></g><g transform="translate(25 370)"><defs><path id="L" d="M18.97 15.97h10.5v3h-10.5v10.5h-3v-10.5H5.47v-3h10.5V5.47h3v10.5z"/></defs><g fill="none" fill-rule="evenodd" transform="translate(-7 -7)"><use fill="#FFF" transform="rotate(45 17.47 17.47)" xlink:href="#L"/></g></g><g transform="translate(425 265)"><path fill="#232323" d="M0 6.7L2.7 4 0 1.3 1.3 0 4 2.7 6.7 0 8 1.3 5.2 4 8 6.7 6.7 8 4 5.3 1.2 8z"/></g><g transform="translate(345 125)"><defs><path id="M" d="M8.035 7L4.5 3.476 5.98 2 12 8l-6.02 6-1.48-1.476L8.035 9H5V7h3.035zM4 7v2H2V7h2zM1 7v2h-2V7h2zm14-6v14h-2V1h2z"/></defs><g fill="none" fill-rule="evenodd"><use fill="#232323" fill-rule="nonzero" transform="rotate(90 7 8)" xlink:href="#M"/></g></g><g transform="translate(345 160)"><defs><path id="N" d="M8.035 7L4.5 3.476 5.98 2 12 8l-6.02 6-1.48-1.476L8.035 9H5V7h3.035zM4 7v2H2V7h2zM1 7v2h-2V7h2zm14-6v14h-2V1h2z"/></defs><g fill="none" fill-rule="evenodd"><use fill="#00883A" fill-rule="nonzero" transform="rotate(90 7 8)" xlink:href="#N"/></g></g><g transform="translate(345 195)"><path d="M8 9.035L11.523 5.5 13 6.981 7 13 1 6.981 2.476 5.5 6 9.035V6h2v3.035zM8 5H6V3h2v2zm0-3H6V0h2v2zm6 14H0v-2h14v2z" fill="#66b889"/></g><g transform="translate(345 230)"><path d="M8 9.035L11.523 5.5 13 6.981 7 13 1 6.981 2.476 5.5 6 9.035V6h2v3.035zM8 5H6V3h2v2zm0-3H6V0h2v2zm6 14H0v-2h14v2z" fill="#fff"/></g><g transform="translate(30 340)"><defs><path id="O" d="M19.212 11.99l-.227.227-1.202-1.202.227-.227-.01-.01 5.36-5.36c-1.635.031-3.27.038-4.906.077.006-.595.025-1.238.032-1.76 2.823-.054 5.42-.065 7.903-.124-.057 2.821-.065 5.424-.125 7.903-.645.015-1.137.022-1.754.037l.072-4.911-5.36 5.36-.01-.01zm-8.424 6.02l.42-.42 1.201 1.203-.419.419.01.01-5.36 5.36c1.635-.031 3.27-.038 4.906-.077-.006.595-.025 1.238-.032 1.76-2.823.054-5.42.065-7.903.124.057-2.821.065-5.424.125-7.903.645-.015 1.137-.022 1.754-.037l-.072 4.911 5.36-5.36.01.01zm3.955-1.55l-1.202-1.203 1.909-1.909 1.202 1.202-1.91 1.91z"/></defs><g fill="none" fill-rule="evenodd" transform="translate(-3 -3)"><use fill="#00883A" fill-rule="nonzero" xlink:href="#O"/></g></g><g transform="translate(60 340)"><defs><path id="P" d="M19.212 11.99l-.227.227-1.202-1.202.227-.227-.01-.01 5.36-5.36c-1.635.031-3.27.038-4.906.077.006-.595.025-1.238.032-1.76 2.823-.054 5.42-.065 7.903-.124-.057 2.821-.065 5.424-.125 7.903-.645.015-1.137.022-1.754.037l.072-4.911-5.36 5.36-.01-.01zm-8.424 6.02l.42-.42 1.201 1.203-.419.419.01.01-5.36 5.36c1.635-.031 3.27-.038 4.906-.077-.006.595-.025 1.238-.032 1.76-2.823.054-5.42.065-7.903.124.057-2.821.065-5.424.125-7.903.645-.015 1.137-.022 1.754-.037l-.072 4.911 5.36-5.36.01.01zm3.955-1.55l-1.202-1.203 1.909-1.909 1.202 1.202-1.91 1.91z"/></defs><g fill="none" fill-rule="evenodd" transform="translate(-3 -3)"><use fill="#FFF" fill-rule="nonzero" xlink:href="#P"/></g></g><g transform="translate(280 395)"><title>icon-extern-arrow-green100</title><defs><path d="M2.002 4v7.997h8.006v1.999H0V4h2.002zm3.014-4l8.97.011.01 8.97-2.191-.002-.007-5.194-4.91 4.91-1.586-1.587 4.813-4.91-5.097-.006L5.016 0z" id="Q"/></defs><g fill="none" fill-rule="evenodd"><mask id="R" fill="#fff"><use xlink:href="#Q"/></mask><g mask="url(#R)" fill="#00883A"><path d="M0 0h14v14H0z"/></g></g></g><g transform="translate(300 395)"><title>icon-extern-arrow-green60</title><defs><path d="M2.002 4v7.997h8.006v1.999H0V4h2.002zm3.014-4l8.97.011.01 8.97-2.191-.002-.007-5.194-4.91 4.91-1.586-1.587 4.813-4.91-5.097-.006L5.016 0z" id="S"/></defs><g fill="none" fill-rule="evenodd"><mask id="T" fill="#fff"><use xlink:href="#S"/></mask><g mask="url(#T)" fill="#66B889"><path d="M0 0h14v14H0z"/></g></g></g><g transform="translate(320 395)"><title>arrow</title><defs><path d="M2.002 4v7.997h8.006v1.999H0V4h2.002zm3.014-4l8.97.011.01 8.97-2.191-.002-.007-5.194-4.91 4.91-1.586-1.587 4.813-4.91-5.097-.006L5.016 0z" id="U"/></defs><g fill="none" fill-rule="evenodd"><g transform="translate(-226 -166)"><g><g transform="translate(206)"><g transform="translate(20 166)"><mask id="V" fill="#fff"><use xlink:href="#U"/></mask><g mask="url(#V)" fill="#232323"><path d="M0 0h14v14H0z"/></g></g></g></g></g></g></g><g transform="translate(340 395)"><defs><path id="W" d="M2.002 4v7.997h8.006v1.999H0V4h2.002zm3.014-4l8.97.011.01 8.97-2.191-.002-.007-5.194-4.91 4.91-1.586-1.587 4.813-4.91-5.097-.006L5.016 0z"/></defs><g fill="none" fill-rule="evenodd"><use fill="#232323" fill-rule="nonzero" xlink:href="#W"/></g></g><g transform="translate(360 395)"><defs><path id="X" d="M2.002 4v7.997h8.006v1.999H0V4h2.002zm3.014-4l8.97.011.01 8.97-2.191-.002-.007-5.194-4.91 4.91-1.586-1.587 4.813-4.91-5.097-.006L5.016 0z"/></defs><g fill="none" fill-rule="evenodd"><use fill="#00883A" fill-rule="nonzero" xlink:href="#X"/></g></g><g transform="translate(380 395)"><defs><path id="Y" d="M2.002 4v7.997h8.006v1.999H0V4h2.002zm3.014-4l8.97.011.01 8.97-2.191-.002-.007-5.194-4.91 4.91-1.586-1.587 4.813-4.91-5.097-.006L5.016 0z"/></defs><g fill="none" fill-rule="evenodd"><use fill="#66B889" fill-rule="nonzero" xlink:href="#Y"/></g></g><g transform="translate(400 395)"><defs><path id="Z" d="M2.002 4v7.997h8.006v1.999H0V4h2.002zm3.014-4l8.97.011.01 8.97-2.191-.002-.007-5.194-4.91 4.91-1.586-1.587 4.813-4.91-5.097-.006L5.016 0z"/></defs><g fill="none" fill-rule="evenodd"><use fill="#FFF" fill-rule="nonzero" xlink:href="#Z"/></g></g><g transform="translate(400 275)"><path fill="#0F1987" fill-rule="evenodd" d="M11.327 12.509l.53-4.09H7.789V5.81c0-1.183.33-1.99 2.036-1.99L12 3.818V.161C11.624.111 10.333 0 8.83 0 5.694 0 3.547 1.905 3.547 5.405V8.42H0v4.089h3.547v10.49H7.79V12.51h3.538z"/></g><g transform="translate(400 305)"><path fill="#00883A" fill-rule="evenodd" d="M11.327 12.509l.53-4.09H7.789V5.81c0-1.183.33-1.99 2.036-1.99L12 3.818V.161C11.624.111 10.333 0 8.83 0 5.694 0 3.547 1.905 3.547 5.405V8.42H0v4.089h3.547v10.49H7.79V12.51h3.538z"/></g><g transform="translate(400 335)"><title>facebook [#176] copy 5</title><g fill="none" fill-rule="evenodd"><g transform="translate(-117 -923)" stroke="#0F1987"><g transform="translate(101 840)"><path d="M23.821 104v-9h2.733L27 91h-3.179v-1.948c0-1.03.027-2.052 1.466-2.052h1.458v-2.86c0-.043-1.253-.14-2.52-.14-2.645 0-4.302 1.657-4.302 4.7V91H17v4h2.923v9h3.898z"/></g></g></g></g><g transform="translate(425 120)"><path fill="#0F1987" fill-rule="evenodd" d="M8.495 9.246l.398-3.023H5.842V4.294c0-.875.247-1.471 1.527-1.471L9 2.822V.119A22.177 22.177 0 0 0 6.623 0C4.27 0 2.66 1.408 2.66 3.995v2.228H0v3.023h2.66V17h3.182V9.246h2.653z"/></g><g transform="translate(425 145)"><path fill="#00883A" fill-rule="evenodd" d="M8.495 9.246l.398-3.023H5.842V4.294c0-.875.247-1.471 1.527-1.471L9 2.822V.119A22.177 22.177 0 0 0 6.623 0C4.27 0 2.66 1.408 2.66 3.995v2.228H0v3.023h2.66V17h3.182V9.246h2.653z"/></g><g transform="translate(425 170)"><path fill="#FFF" fill-rule="evenodd" d="M8.495 9.246l.398-3.023H5.842V4.294c0-.875.247-1.471 1.527-1.471L9 2.822V.119A22.177 22.177 0 0 0 6.623 0C4.27 0 2.66 1.408 2.66 3.995v2.228H0v3.023h2.66V17h3.182V9.246h2.653z"/></g><g transform="translate(400 365)"><path fill="#FFF" fill-rule="evenodd" d="M11.327 12.509l.53-4.09H7.789V5.81c0-1.183.33-1.99 2.036-1.99L12 3.818V.161C11.624.111 10.333 0 8.83 0 5.694 0 3.547 1.905 3.547 5.405V8.42H0v4.089h3.547v10.49H7.79V12.51h3.538z"/></g><g transform="translate(50 370)"><g><g transform="rotate(135 6.316 11.558) scale(.78722)"><path d="M2.345 6.109c.429 1.9 1.476 3.838 3.097 5.457 1.622 1.619 3.553 2.664 5.439 3.091 1.425.323 2.624.209 2.858-.025.004-.004.338-.333.432-.428.871-.888.921-1.169.046-1.87-1.12-.899-1.411-.831-2.386.145l-.19.191c-1.277 1.275-2.828.268-5.244-2.143-2.418-2.414-3.426-3.962-2.146-5.24l.096-.096.162-.158c.964-.939 1.019-1.163.155-2.236-.717-.89-1-.842-1.893.029-.092.09-.432.432-.404.404-.232.232-.346 1.444-.022 2.879zm3.546.389a.112.112 0 0 0-.001-.027l.001.008v.019zm.284.54c.349.537.941 1.216 1.717 1.991.776.774 1.457 1.365 1.995 1.715.178.115.329.196.443.243 1.657-1.66 3.103-1.996 5.212-.304 2.07 1.661 1.774 3.338.14 5.003-.109.111-.454.45-.448.444-1.899 1.899-7.609.606-11.287-3.066C.268 9.391-1.032 3.631.871 1.732c-.041.042.315-.317.422-.422 1.671-1.63 3.348-1.916 5.019.16 1.672 2.075 1.332 3.463-.325 5.079l-.054.052c.047.113.128.262.242.437z" fill="#00883a"/></g><g transform="translate(-1.165 1)"><path d="M6.798 9L5 9.691V1h8.171l3.158 3.158v5.533L14.527 9l-.019-4.184-1.995.009-.002-2.026-5.735-.025L6.798 9z" fill="#00883a"/></g></g></g><g transform="translate(75 370)"><g><g transform="rotate(135 6.316 11.558) scale(.78722)"><path d="M2.345 6.109c.429 1.9 1.476 3.838 3.097 5.457 1.622 1.619 3.553 2.664 5.439 3.091 1.425.323 2.624.209 2.858-.025.004-.004.338-.333.432-.428.871-.888.921-1.169.046-1.87-1.12-.899-1.411-.831-2.386.145l-.19.191c-1.277 1.275-2.828.268-5.244-2.143-2.418-2.414-3.426-3.962-2.146-5.24l.096-.096.162-.158c.964-.939 1.019-1.163.155-2.236-.717-.89-1-.842-1.893.029-.092.09-.432.432-.404.404-.232.232-.346 1.444-.022 2.879zm3.546.389a.112.112 0 0 0-.001-.027l.001.008v.019zm.284.54c.349.537.941 1.216 1.717 1.991.776.774 1.457 1.365 1.995 1.715.178.115.329.196.443.243 1.657-1.66 3.103-1.996 5.212-.304 2.07 1.661 1.774 3.338.14 5.003-.109.111-.454.45-.448.444-1.899 1.899-7.609.606-11.287-3.066C.268 9.391-1.032 3.631.871 1.732c-.041.042.315-.317.422-.422 1.671-1.63 3.348-1.916 5.019.16 1.672 2.075 1.332 3.463-.325 5.079l-.054.052c.047.113.128.262.242.437z" fill="#232323"/></g><g transform="translate(-1.165 1)"><path d="M6.798 9L5 9.691V1h8.171l3.158 3.158v5.533L14.527 9l-.019-4.184-1.995.009-.002-2.026-5.735-.025L6.798 9z" fill="#232323"/></g></g></g><g transform="translate(250 60)"><title>icon-galerie-black</title><g fill="none" fill-rule="evenodd"><g><path fill="#232323" d="M0 0h50v50H0z"/><circle fill="#FFF" fill-rule="nonzero" cx="15.723" cy="15.476" r="2.389"/><path d="M10.07 10.07v24.445h24.445V10.07H10.07zm23.164 23.164H11.351V11.351h21.883v21.883z" fill="#FFF" fill-rule="nonzero"/><path fill="#FFF" fill-rule="nonzero" d="M34.31 12.727v1.287h1.68v21.97H14.013v-1.676h-1.287v2.965h24.546V12.727z"/><path fill="#FFF" fill-rule="nonzero" d="M37.035 15.455v1.286h1.679v21.973H16.74v-1.679h-1.286V40H40V15.455z"/><path fill="#FFF" fill-rule="nonzero" d="M10.711 27.386l6.11-6.536 2.277 4.032 6.149-9.406 8.63 5.81v12.592H10.712z"/></g></g></g><g transform="translate(250 115)"><title>icon-galerie-green</title><g fill="none" fill-rule="evenodd"><g><path fill="#FFF" d="M0 0h50v50H0z"/><path d="M1 1v48h48V1H1zM0 0h50v50H0V0z" fill="#00883A" fill-rule="nonzero"/><circle fill="#00883A" fill-rule="nonzero" cx="15.723" cy="15.476" r="2.389"/><path d="M10.07 10.07v24.445h24.445V10.07H10.07zm23.164 23.164H11.351V11.351h21.883v21.883z" fill="#00883A" fill-rule="nonzero"/><path fill="#00883A" fill-rule="nonzero" d="M34.31 12.727v1.287h1.68v21.97H14.013v-1.676h-1.287v2.965h24.546V12.727z"/><path fill="#00883A" fill-rule="nonzero" d="M37.035 15.455v1.286h1.679v21.973H16.74v-1.679h-1.286V40H40V15.455z"/><path fill="#00883A" fill-rule="nonzero" d="M10.711 27.386l6.11-6.536 2.277 4.032 6.149-9.406 8.63 5.81v12.592H10.712z"/></g></g></g><g transform="translate(80 230)"><defs><path id="aa" d="M14 10V2H4V0h12v10h-2zM0 4h12v10H0V4z"/></defs><g fill="none" fill-rule="evenodd"><use fill="#232323" xlink:href="#aa"/></g></g><g transform="translate(105 230)"><defs><path id="ab" d="M14 10V2H4V0h12v10h-2zM0 4h12v10H0V4z"/></defs><g fill="none" fill-rule="evenodd"><use fill="#00883A" xlink:href="#ab"/></g></g><g transform="translate(130 230)"><defs><path id="ac" d="M14 10V2H4V0h12v10h-2zM0 4h12v10H0V4z"/></defs><g fill="none" fill-rule="evenodd"><use fill="#FFF" xlink:href="#ac"/></g></g><g transform="translate(100 370)"><defs><path id="ad" d="M16 9.629L9 2.771 2 9.629v8.412h14V9.629zM18 20H0V8.817L9 0l9 8.817V20z"/></defs><use fill="#00883A" xlink:href="#ad"/></g><g transform="translate(125 370)"><defs><path id="ae" d="M16 9.629L9 2.771 2 9.629v8.412h14V9.629zM18 20H0V8.817L9 0l9 8.817V20z"/></defs><use fill="#FFF" xlink:href="#ae"/></g><g transform="translate(250 170) scale(1.84993)"><g><path fill="#00883a" d="M0 0h27v27H0z"/></g><g><clipPath id="af"><path d="M14.74 10.56v9.74h-2.52v-9.74h2.52zm.2-3.1c0 .88-.6 1.44-1.46 1.44-.88 0-1.48-.56-1.48-1.44 0-.9.6-1.46 1.48-1.46.86 0 1.46.56 1.46 1.46z"/></clipPath><g clip-path="url(#af)"><g><g transform="translate(0 -.7)"><path fill="#fff" d="M12 6.7h3v15h-3z"/></g><path fill="#fff" d="M12 6h3v15h-3z"/></g></g></g></g><g transform="translate(310 230)"><path fill="#0F1987" fill-rule="evenodd" d="M13.5 2.432c3.605 0 4.032.014 5.455.08 1.316.06 2.031.28 2.507.464.63.245 1.08.537 1.552 1.01.473.472.765.922 1.01 1.552.185.476.405 1.19.465 2.507.065 1.423.079 1.85.079 5.455s-.014 4.032-.08 5.455c-.06 1.316-.28 2.031-.464 2.507a4.182 4.182 0 0 1-1.01 1.552 4.182 4.182 0 0 1-1.552 1.01c-.476.185-1.19.405-2.507.465-1.423.065-1.85.079-5.455.079s-4.032-.014-5.455-.08c-1.316-.06-2.031-.28-2.507-.464a4.182 4.182 0 0 1-1.552-1.01 4.182 4.182 0 0 1-1.01-1.552c-.185-.476-.405-1.19-.465-2.507-.065-1.423-.079-1.85-.079-5.455s.014-4.032.08-5.455c.06-1.316.28-2.031.464-2.507.245-.63.537-1.08 1.01-1.552a4.183 4.183 0 0 1 1.552-1.01c.476-.185 1.19-.405 2.507-.465 1.423-.065 1.85-.079 5.455-.079M13.5 0c3.666 0 4.126.016 5.566.081 1.437.066 2.418.294 3.277.628.888.345 1.64.806 2.391 1.557a6.617 6.617 0 0 1 1.557 2.391c.334.859.562 1.84.628 3.277.065 1.44.081 1.9.081 5.566s-.016 4.126-.081 5.566c-.066 1.437-.294 2.418-.628 3.277a6.617 6.617 0 0 1-1.557 2.391 6.617 6.617 0 0 1-2.391 1.557c-.859.334-1.84.562-3.277.628-1.44.066-1.9.081-5.566.081s-4.126-.015-5.566-.081c-1.437-.066-2.418-.294-3.277-.628a6.617 6.617 0 0 1-2.391-1.557 6.618 6.618 0 0 1-1.557-2.39c-.334-.86-.562-1.841-.628-3.278C.015 17.626 0 17.166 0 13.5s.015-4.126.081-5.566C.147 6.497.375 5.516.71 4.657a6.617 6.617 0 0 1 1.557-2.391A6.617 6.617 0 0 1 4.656.709C5.517.375 6.498.147 7.935.08 9.374.016 9.834 0 13.5 0zm0 6.568a6.932 6.932 0 1 0 0 13.865 6.932 6.932 0 0 0 0-13.865zM13.5 18a4.5 4.5 0 1 1 0-9 4.5 4.5 0 0 1 0 9zm8.826-11.706a1.62 1.62 0 1 0-3.24 0 1.62 1.62 0 0 0 3.24 0z"/></g><g transform="translate(310 265)"><path fill="#00883A" fill-rule="evenodd" d="M13.5 2.432c3.605 0 4.032.014 5.455.08 1.316.06 2.031.28 2.507.464.63.245 1.08.537 1.552 1.01.473.472.765.922 1.01 1.552.185.476.405 1.19.465 2.507.065 1.423.079 1.85.079 5.455s-.014 4.032-.08 5.455c-.06 1.316-.28 2.031-.464 2.507a4.182 4.182 0 0 1-1.01 1.552 4.182 4.182 0 0 1-1.552 1.01c-.476.185-1.19.405-2.507.465-1.423.065-1.85.079-5.455.079s-4.032-.014-5.455-.08c-1.316-.06-2.031-.28-2.507-.464a4.182 4.182 0 0 1-1.552-1.01 4.182 4.182 0 0 1-1.01-1.552c-.185-.476-.405-1.19-.465-2.507-.065-1.423-.079-1.85-.079-5.455s.014-4.032.08-5.455c.06-1.316.28-2.031.464-2.507.245-.63.537-1.08 1.01-1.552a4.183 4.183 0 0 1 1.552-1.01c.476-.185 1.19-.405 2.507-.465 1.423-.065 1.85-.079 5.455-.079M13.5 0c3.666 0 4.126.016 5.566.081 1.437.066 2.418.294 3.277.628.888.345 1.64.806 2.391 1.557a6.617 6.617 0 0 1 1.557 2.391c.334.859.562 1.84.628 3.277.065 1.44.081 1.9.081 5.566s-.016 4.126-.081 5.566c-.066 1.437-.294 2.418-.628 3.277a6.617 6.617 0 0 1-1.557 2.391 6.617 6.617 0 0 1-2.391 1.557c-.859.334-1.84.562-3.277.628-1.44.066-1.9.081-5.566.081s-4.126-.015-5.566-.081c-1.437-.066-2.418-.294-3.277-.628a6.617 6.617 0 0 1-2.391-1.557 6.618 6.618 0 0 1-1.557-2.39c-.334-.86-.562-1.841-.628-3.278C.015 17.626 0 17.166 0 13.5s.015-4.126.081-5.566C.147 6.497.375 5.516.71 4.657a6.617 6.617 0 0 1 1.557-2.391A6.617 6.617 0 0 1 4.656.709C5.517.375 6.498.147 7.935.08 9.374.016 9.834 0 13.5 0zm0 6.568a6.932 6.932 0 1 0 0 13.865 6.932 6.932 0 0 0 0-13.865zM13.5 18a4.5 4.5 0 1 1 0-9 4.5 4.5 0 0 1 0 9zm8.826-11.706a1.62 1.62 0 1 0-3.24 0 1.62 1.62 0 0 0 3.24 0z"/></g><g transform="translate(150 370)"><path fill="#0F1987" fill-rule="evenodd" d="M10 0c2.716 0 3.056.012 4.123.06 1.064.049 1.791.218 2.427.465a4.902 4.902 0 0 1 1.772 1.153 4.902 4.902 0 0 1 1.153 1.772c.247.636.416 1.363.465 2.427.048 1.067.06 1.407.06 4.123s-.012 3.056-.06 4.123c-.049 1.064-.218 1.791-.465 2.427a4.902 4.902 0 0 1-1.153 1.772 4.902 4.902 0 0 1-1.772 1.153c-.636.247-1.363.416-2.427.465-1.067.048-1.407.06-4.123.06s-3.056-.012-4.123-.06c-1.064-.049-1.791-.218-2.427-.465a4.902 4.902 0 0 1-1.772-1.153A4.902 4.902 0 0 1 .525 16.55c-.247-.636-.416-1.363-.465-2.427C.012 13.056 0 12.716 0 10s.012-3.056.06-4.123C.11 4.813.278 4.086.525 3.45a4.902 4.902 0 0 1 1.153-1.772A4.902 4.902 0 0 1 3.45.525C4.086.278 4.813.109 5.877.06 6.944.012 7.284 0 10 0zm0 1.802c-2.67 0-2.986.01-4.04.058-.976.045-1.505.207-1.858.344-.466.182-.8.399-1.15.748-.35.35-.566.684-.748 1.15-.137.353-.3.882-.344 1.857-.048 1.055-.058 1.37-.058 4.041 0 2.67.01 2.986.058 4.04.045.976.207 1.505.344 1.858.182.466.399.8.748 1.15.35.35.684.566 1.15.748.353.137.882.3 1.857.344 1.054.048 1.37.058 4.041.058 2.67 0 2.987-.01 4.04-.058.976-.045 1.505-.207 1.858-.344.466-.182.8-.399 1.15-.748.35-.35.566-.684.748-1.15.137-.353.3-.882.344-1.857.048-1.055.058-1.37.058-4.041 0-2.67-.01-2.986-.058-4.04-.045-.976-.207-1.505-.344-1.858a3.098 3.098 0 0 0-.748-1.15 3.098 3.098 0 0 0-1.15-.748c-.353-.137-.882-.3-1.857-.344-1.055-.048-1.37-.058-4.041-.058zm0 3.063a5.135 5.135 0 1 1 0 10.27 5.135 5.135 0 0 1 0-10.27zm0 8.468a3.333 3.333 0 1 0 0-6.666 3.333 3.333 0 0 0 0 6.666zm6.538-8.671a1.2 1.2 0 1 1-2.4 0 1.2 1.2 0 0 1 2.4 0z"/></g><g transform="translate(175 370)"><path fill="#00883A" fill-rule="evenodd" d="M10 0c2.716 0 3.056.012 4.123.06 1.064.049 1.791.218 2.427.465a4.902 4.902 0 0 1 1.772 1.153 4.902 4.902 0 0 1 1.153 1.772c.247.636.416 1.363.465 2.427.048 1.067.06 1.407.06 4.123s-.012 3.056-.06 4.123c-.049 1.064-.218 1.791-.465 2.427a4.902 4.902 0 0 1-1.153 1.772 4.902 4.902 0 0 1-1.772 1.153c-.636.247-1.363.416-2.427.465-1.067.048-1.407.06-4.123.06s-3.056-.012-4.123-.06c-1.064-.049-1.791-.218-2.427-.465a4.902 4.902 0 0 1-1.772-1.153A4.902 4.902 0 0 1 .525 16.55c-.247-.636-.416-1.363-.465-2.427C.012 13.056 0 12.716 0 10s.012-3.056.06-4.123C.11 4.813.278 4.086.525 3.45a4.902 4.902 0 0 1 1.153-1.772A4.902 4.902 0 0 1 3.45.525C4.086.278 4.813.109 5.877.06 6.944.012 7.284 0 10 0zm0 1.802c-2.67 0-2.986.01-4.04.058-.976.045-1.505.207-1.858.344-.466.182-.8.399-1.15.748-.35.35-.566.684-.748 1.15-.137.353-.3.882-.344 1.857-.048 1.055-.058 1.37-.058 4.041 0 2.67.01 2.986.058 4.04.045.976.207 1.505.344 1.858.182.466.399.8.748 1.15.35.35.684.566 1.15.748.353.137.882.3 1.857.344 1.054.048 1.37.058 4.041.058 2.67 0 2.987-.01 4.04-.058.976-.045 1.505-.207 1.858-.344.466-.182.8-.399 1.15-.748.35-.35.566-.684.748-1.15.137-.353.3-.882.344-1.857.048-1.055.058-1.37.058-4.041 0-2.67-.01-2.986-.058-4.04-.045-.976-.207-1.505-.344-1.858a3.098 3.098 0 0 0-.748-1.15 3.098 3.098 0 0 0-1.15-.748c-.353-.137-.882-.3-1.857-.344-1.055-.048-1.37-.058-4.041-.058zm0 3.063a5.135 5.135 0 1 1 0 10.27 5.135 5.135 0 0 1 0-10.27zm0 8.468a3.333 3.333 0 1 0 0-6.666 3.333 3.333 0 0 0 0 6.666zm6.538-8.671a1.2 1.2 0 1 1-2.4 0 1.2 1.2 0 0 1 2.4 0z"/></g><g transform="translate(200 370)"><path fill="#FFF" fill-rule="evenodd" d="M10 0c2.716 0 3.056.012 4.123.06 1.064.049 1.791.218 2.427.465a4.902 4.902 0 0 1 1.772 1.153 4.902 4.902 0 0 1 1.153 1.772c.247.636.416 1.363.465 2.427.048 1.067.06 1.407.06 4.123s-.012 3.056-.06 4.123c-.049 1.064-.218 1.791-.465 2.427a4.902 4.902 0 0 1-1.153 1.772 4.902 4.902 0 0 1-1.772 1.153c-.636.247-1.363.416-2.427.465-1.067.048-1.407.06-4.123.06s-3.056-.012-4.123-.06c-1.064-.049-1.791-.218-2.427-.465a4.902 4.902 0 0 1-1.772-1.153A4.902 4.902 0 0 1 .525 16.55c-.247-.636-.416-1.363-.465-2.427C.012 13.056 0 12.716 0 10s.012-3.056.06-4.123C.11 4.813.278 4.086.525 3.45a4.902 4.902 0 0 1 1.153-1.772A4.902 4.902 0 0 1 3.45.525C4.086.278 4.813.109 5.877.06 6.944.012 7.284 0 10 0zm0 1.802c-2.67 0-2.986.01-4.04.058-.976.045-1.505.207-1.858.344-.466.182-.8.399-1.15.748-.35.35-.566.684-.748 1.15-.137.353-.3.882-.344 1.857-.048 1.055-.058 1.37-.058 4.041 0 2.67.01 2.986.058 4.04.045.976.207 1.505.344 1.858.182.466.399.8.748 1.15.35.35.684.566 1.15.748.353.137.882.3 1.857.344 1.054.048 1.37.058 4.041.058 2.67 0 2.987-.01 4.04-.058.976-.045 1.505-.207 1.858-.344.466-.182.8-.399 1.15-.748.35-.35.566-.684.748-1.15.137-.353.3-.882.344-1.857.048-1.055.058-1.37.058-4.041 0-2.67-.01-2.986-.058-4.04-.045-.976-.207-1.505-.344-1.858a3.098 3.098 0 0 0-.748-1.15 3.098 3.098 0 0 0-1.15-.748c-.353-.137-.882-.3-1.857-.344-1.055-.048-1.37-.058-4.041-.058zm0 3.063a5.135 5.135 0 1 1 0 10.27 5.135 5.135 0 0 1 0-10.27zm0 8.468a3.333 3.333 0 1 0 0-6.666 3.333 3.333 0 0 0 0 6.666zm6.538-8.671a1.2 1.2 0 1 1-2.4 0 1.2 1.2 0 0 1 2.4 0z"/></g><g transform="translate(200 170)"><path fill="#FFF" fill-rule="evenodd" d="M13.5 2.432c3.605 0 4.032.014 5.455.08 1.316.06 2.031.28 2.507.464.63.245 1.08.537 1.552 1.01.473.472.765.922 1.01 1.552.185.476.405 1.19.465 2.507.065 1.423.079 1.85.079 5.455s-.014 4.032-.08 5.455c-.06 1.316-.28 2.031-.464 2.507a4.182 4.182 0 0 1-1.01 1.552 4.182 4.182 0 0 1-1.552 1.01c-.476.185-1.19.405-2.507.465-1.423.065-1.85.079-5.455.079s-4.032-.014-5.455-.08c-1.316-.06-2.031-.28-2.507-.464a4.182 4.182 0 0 1-1.552-1.01 4.182 4.182 0 0 1-1.01-1.552c-.185-.476-.405-1.19-.465-2.507-.065-1.423-.079-1.85-.079-5.455s.014-4.032.08-5.455c.06-1.316.28-2.031.464-2.507.245-.63.537-1.08 1.01-1.552a4.183 4.183 0 0 1 1.552-1.01c.476-.185 1.19-.405 2.507-.465 1.423-.065 1.85-.079 5.455-.079M13.5 0c3.666 0 4.126.016 5.566.081 1.437.066 2.418.294 3.277.628.888.345 1.64.806 2.391 1.557a6.617 6.617 0 0 1 1.557 2.391c.334.859.562 1.84.628 3.277.065 1.44.081 1.9.081 5.566s-.016 4.126-.081 5.566c-.066 1.437-.294 2.418-.628 3.277a6.617 6.617 0 0 1-1.557 2.391 6.617 6.617 0 0 1-2.391 1.557c-.859.334-1.84.562-3.277.628-1.44.066-1.9.081-5.566.081s-4.126-.015-5.566-.081c-1.437-.066-2.418-.294-3.277-.628a6.617 6.617 0 0 1-2.391-1.557 6.618 6.618 0 0 1-1.557-2.39c-.334-.86-.562-1.841-.628-3.278C.015 17.626 0 17.166 0 13.5s.015-4.126.081-5.566C.147 6.497.375 5.516.71 4.657a6.617 6.617 0 0 1 1.557-2.391A6.617 6.617 0 0 1 4.656.709C5.517.375 6.498.147 7.935.08 9.374.016 9.834 0 13.5 0zm0 6.568a6.932 6.932 0 1 0 0 13.865 6.932 6.932 0 0 0 0-13.865zM13.5 18a4.5 4.5 0 1 1 0-9 4.5 4.5 0 0 1 0 9zm8.826-11.706a1.62 1.62 0 1 0-3.24 0 1.62 1.62 0 0 0 3.24 0z"/></g><g transform="translate(225 370)"><title>Shape</title><g fill="none" fill-rule="evenodd"><g transform="translate(-113 -880)" fill="#0F1987" fill-rule="nonzero"><g transform="translate(101 840)"><path d="M19.482 58.717a4.386 4.386 0 0 1-6.2 0 4.386 4.386 0 0 1 0-6.199l3.875-3.874a4.382 4.382 0 0 1 5.969-.218.55.55 0 0 1-.72.83 3.266 3.266 0 0 0-4.474.163l-3.874 3.874a3.268 3.268 0 0 0 0 4.65 3.268 3.268 0 0 0 4.649 0l3.874-3.875a.548.548 0 1 1 .775.775l-3.874 3.874zm7.36-7.361a4.382 4.382 0 0 1-5.968.218.55.55 0 1 1 .72-.83 3.266 3.266 0 0 0 4.474-.163l3.874-3.874a3.268 3.268 0 0 0 0-4.65 3.268 3.268 0 0 0-4.649 0l-3.874 3.875a.548.548 0 1 1-.775-.775l3.874-3.874a4.386 4.386 0 0 1 6.2 0 4.386 4.386 0 0 1 0 6.199l-3.875 3.874z"/></g></g></g></g><g transform="translate(275 250)"><path d="M.102 1.948C.102.882.988.017 2.082.017h22.836c1.094 0 1.98.865 1.98 1.931v23.104c0 1.067-.886 1.931-1.98 1.931H2.082c-1.094 0-1.98-.864-1.98-1.931V1.948zm10.335 20.694h4.051v-6.807c0-.364.026-.728.133-.988.293-.728.959-1.482 2.079-1.482 1.466 0 2.052 1.118 2.052 2.756v6.521h4.051v-6.989c0-3.743-1.999-5.485-4.664-5.485-2.149 0-3.113 1.181-3.651 2.011v.042h-.027l.027-.042v-1.725h-4.051c.053 1.143 0 12.188 0 12.188zm-2.242 0V10.454H4.144v12.188h4.051zM6.169 8.789c1.413 0 2.292-.936 2.292-2.105-.026-1.196-.879-2.106-2.265-2.106-1.386 0-2.292.91-2.292 2.106 0 1.169.879 2.105 2.239 2.105h.026z" fill="#000883"/></g><g transform="translate(0 305)"><path d="M.102 1.948C.102.882.988.017 2.082.017h22.836c1.094 0 1.98.865 1.98 1.931v23.104c0 1.067-.886 1.931-1.98 1.931H2.082c-1.094 0-1.98-.864-1.98-1.931V1.948zm10.335 20.694h4.051v-6.807c0-.364.026-.728.133-.988.293-.728.959-1.482 2.079-1.482 1.466 0 2.052 1.118 2.052 2.756v6.521h4.051v-6.989c0-3.743-1.999-5.485-4.664-5.485-2.149 0-3.113 1.181-3.651 2.011v.042h-.027l.027-.042v-1.725h-4.051c.053 1.143 0 12.188 0 12.188zm-2.242 0V10.454H4.144v12.188h4.051zM6.169 8.789c1.413 0 2.292-.936 2.292-2.105-.026-1.196-.879-2.106-2.265-2.106-1.386 0-2.292.91-2.292 2.106 0 1.169.879 2.105 2.239 2.105h.026z" fill="#00883a"/></g><g transform="translate(35 305)"><g serif:id="Ebene 1" transform="translate(1.337 1.5) scale(.53406)"><g transform="translate(41.788 45.323)"><path d="M0-45.176h-38.256c-1.833 0-3.317 1.449-3.317 3.235v38.705c0 1.789 1.484 3.236 3.317 3.236H0c1.833 0 3.317-1.447 3.317-3.236v-38.705c0-1.786-1.484-3.235-3.317-3.235" fill="none" stroke="#303593" stroke-width="1.5"/></g><g transform="translate(10.392 30.62)"><path d="M0-16.153c2.367 0 3.84-1.568 3.84-3.526-.044-2.004-1.473-3.529-3.795-3.529-2.321 0-3.839 1.525-3.839 3.529 0 1.958 1.472 3.526 3.751 3.526H0zm3.395 2.789h-6.787V7.055h6.787v-20.419zM7.15 7.055h6.787V-4.349c0-.61.043-1.219.222-1.656.491-1.218 1.608-2.482 3.484-2.482 2.456 0 3.437 1.873 3.437 4.617V7.055h6.787V-4.654c0-6.27-3.349-9.188-7.814-9.188-3.6 0-5.215 1.978-6.116 3.369v.07h-.045l.045-.07v-2.891H7.15c.089 1.915 0 20.419 0 20.419z" fill="none" stroke="#303593" stroke-width="1.5" stroke-miterlimit="10"/></g></g></g><g transform="translate(70 305)"><path d="M.102 1.948C.102.882.988.017 2.082.017h22.836c1.094 0 1.98.865 1.98 1.931v23.104c0 1.067-.886 1.931-1.98 1.931H2.082c-1.094 0-1.98-.864-1.98-1.931V1.948zm10.335 20.694h4.051v-6.807c0-.364.026-.728.133-.988.293-.728.959-1.482 2.079-1.482 1.466 0 2.052 1.118 2.052 2.756v6.521h4.051v-6.989c0-3.743-1.999-5.485-4.664-5.485-2.149 0-3.113 1.181-3.651 2.011v.042h-.027l.027-.042v-1.725h-4.051c.053 1.143 0 12.188 0 12.188zm-2.242 0V10.454H4.144v12.188h4.051zM6.169 8.789c1.413 0 2.292-.936 2.292-2.105-.026-1.196-.879-2.106-2.265-2.106-1.386 0-2.292.91-2.292 2.106 0 1.169.879 2.105 2.239 2.105h.026z" fill="#fff"/></g><g transform="translate(90 340)"><title>icon_mail</title><g fill="none" fill-rule="evenodd"><path d="M0 10.42l8.003 4.317L23.73.42 10.382 16.025l9.15 4.962L24 0 0 10.42zM7.525 24l4.512-4.857-4.512-2.652V24z" fill="#232323"/></g></g><g transform="translate(155 230)"><title>icon_mail_green</title><defs><path d="M3.414 2L7 5.586 10.586 2H3.414zM12 3.414l-5 5-5-5V9h10V3.414zM0 0h14v11H0V0z" id="ag"/></defs><g fill="none" fill-rule="evenodd"><g transform="translate(1 1)"><g><mask id="ah" fill="#fff"><use xlink:href="#ag"/></mask><g mask="url(#ah)" fill="#00883A"><path d="M0 0h14v11H0z"/></g></g></g></g></g><g transform="translate(180 230)"><title>icon_mail_grey</title><defs><path d="M3.414 2L7 5.586 10.586 2H3.414zM12 3.414l-5 5-5-5V9h10V3.414zM0 0h14v11H0V0z" id="ai"/></defs><g fill="none" fill-rule="evenodd"><g transform="translate(1 1)"><g><mask id="aj" fill="#fff"><use xlink:href="#ai"/></mask><g mask="url(#aj)" fill="#232323"><path d="M0 0h14v11H0z"/></g></g></g></g></g><g transform="translate(345 265)"><title>icon-map-black</title><g fill="none" fill-rule="evenodd"><path d="M13.45 4.327a7.059 7.059 0 0 0-1.5-2.252A6.965 6.965 0 0 0 9.725.557 6.882 6.882 0 0 0 7 0c-.946 0-1.862.187-2.725.557A6.969 6.969 0 0 0 2.05 2.075 7.109 7.109 0 0 0 0 7.085c-.001 1.605 1.122 4.193 3.335 7.691 1.624 2.565 3.27 4.712 3.286 4.733L7 20l.377-.491a71.26 71.26 0 0 0 3.287-4.733C12.877 11.278 14 8.691 14 7.085a7.12 7.12 0 0 0-.55-2.758zM7 9.514c-1.498 0-2.713-1.23-2.713-2.746 0-1.517 1.215-2.746 2.713-2.746 1.5 0 2.713 1.23 2.713 2.746C9.713 8.285 8.5 9.514 7 9.514z" fill="#232323" fill-rule="nonzero"/></g></g><g transform="translate(425 295)"><title>Rectangle 4</title><g fill="none" fill-rule="evenodd"><g transform="translate(0 -5)" fill="#232323"><g><path d="M0 0h12v12H0z"/></g></g></g></g><g transform="translate(425 305)"><title>plus</title><defs><path id="ak" d="M0 5h12v2H0z"/></defs><g fill="none" fill-rule="evenodd"><g transform="translate(-1099 -856)"><g transform="translate(309 827)"><g transform="translate(790 24)"><mask id="al" fill="#fff"><use xlink:href="#ak"/></mask><use fill="#4A4A4A" xlink:href="#ak"/><g mask="url(#al)" fill="#00883A"><path d="M0 0h12v12H0z"/></g></g></g></g></g></g><g transform="translate(170)"><title>icon-news-tag-black</title><g fill="none" fill-rule="evenodd"><g><path fill="#FFF" d="M62 15.58l9 10.5v3.84l-9-10.5v8.16l9 10.5v3.84l-9-10.5v8.16l9 10.5v3.84l-9-10.5v8.16l9 10.5v3.84l-9-10.5V62h-1.497l7.715 9h-3.293l-7.714-9h-7.13l7.715 9h-3.293l-7.714-9h-7.13l7.714 9h-3.292l-7.715-9h-7.13l7.715 9h-3.293l-7.714-9h-7.13l7.715 9h-3.293l-7.714-9H0V0h62z"/><path fill="#FFF" d="M66.536 9L71 14.102v3.796L63.214 9zM9 62.709L16.107 71h-3.293L9 66.55z"/><path fill="#232323" d="M1 1v60h60V1z"/><path fill="#FFF" d="M30.54 30h-2.93l-5.704-9.355V30h-2.93V15.781h2.93l5.713 9.375v-9.375h2.92zm11.112-6.162h-5.625v3.808h6.602V30h-9.531V15.781h9.511v2.373h-6.582v3.389h5.625zm-13.308 22.06l1.914-10.117h2.92L30.023 50h-2.949l-2.314-9.512L22.445 50h-2.949l-3.154-14.219h2.92l1.924 10.098 2.343-10.098h2.48zm14.789.372c0-.554-.195-.979-.586-1.275-.39-.296-1.094-.609-2.11-.937-1.015-.33-1.82-.653-2.412-.972-1.614-.872-2.421-2.048-2.421-3.525 0-.769.216-1.454.649-2.056.433-.602 1.055-1.073 1.865-1.411.81-.339 1.72-.508 2.73-.508 1.015 0 1.92.184 2.715.552.794.368 1.41.887 1.85 1.557.44.67.66 1.433.66 2.285h-2.93c0-.65-.205-1.157-.616-1.518-.41-.361-.986-.542-1.728-.542-.716 0-1.273.151-1.67.454a1.432 1.432 0 0 0-.596 1.196c0 .463.233.85.698 1.162.466.313 1.151.606 2.056.88 1.667.5 2.881 1.122 3.643 1.865.761.742 1.142 1.666 1.142 2.773 0 1.23-.465 2.196-1.396 2.896-.931.7-2.184 1.05-3.76 1.05-1.094 0-2.09-.2-2.988-.601-.899-.4-1.584-.95-2.056-1.646s-.708-1.504-.708-2.422h2.94c0 1.57.937 2.354 2.812 2.354.697 0 1.24-.142 1.63-.425.392-.283.587-.679.587-1.186z"/></g></g></g><g transform="translate(170 80)"><title>icon-news-tag-green</title><g fill="none" fill-rule="evenodd"><g><path fill="#FFF" d="M62 15.58l9 10.5v3.84l-9-10.5v8.16l9 10.5v3.84l-9-10.5v8.16l9 10.5v3.84l-9-10.5v8.16l9 10.5v3.84l-9-10.5V62h-1.497l7.715 9h-3.293l-7.714-9h-7.13l7.715 9h-3.293l-7.714-9h-7.13l7.714 9h-3.292l-7.715-9h-7.13l7.715 9h-3.293l-7.714-9h-7.13l7.715 9h-3.293l-7.714-9H0V0h62z"/><path fill="#FFF" d="M66.536 9L71 14.102v3.796L63.214 9zM9 62.709L16.107 71h-3.293L9 66.55z"/><path fill="#00883A" d="M1 1v60h60V1z"/><path fill="#FFF" d="M30.54 30h-2.93l-5.704-9.355V30h-2.93V15.781h2.93l5.713 9.375v-9.375h2.92zm11.112-6.162h-5.625v3.808h6.602V30h-9.531V15.781h9.511v2.373h-6.582v3.389h5.625zm-13.308 22.06l1.914-10.117h2.92L30.023 50h-2.949l-2.314-9.512L22.445 50h-2.949l-3.154-14.219h2.92l1.924 10.098 2.343-10.098h2.48zm14.789.372c0-.554-.195-.979-.586-1.275-.39-.296-1.094-.609-2.11-.937-1.015-.33-1.82-.653-2.412-.972-1.614-.872-2.421-2.048-2.421-3.525 0-.769.216-1.454.649-2.056.433-.602 1.055-1.073 1.865-1.411.81-.339 1.72-.508 2.73-.508 1.015 0 1.92.184 2.715.552.794.368 1.41.887 1.85 1.557.44.67.66 1.433.66 2.285h-2.93c0-.65-.205-1.157-.616-1.518-.41-.361-.986-.542-1.728-.542-.716 0-1.273.151-1.67.454a1.432 1.432 0 0 0-.596 1.196c0 .463.233.85.698 1.162.466.313 1.151.606 2.056.88 1.667.5 2.881 1.122 3.643 1.865.761.742 1.142 1.666 1.142 2.773 0 1.23-.465 2.196-1.396 2.896-.931.7-2.184 1.05-3.76 1.05-1.094 0-2.09-.2-2.988-.601-.899-.4-1.584-.95-2.056-1.646s-.708-1.504-.708-2.422h2.94c0 1.57.937 2.354 2.812 2.354.697 0 1.24-.142 1.63-.425.392-.283.587-.679.587-1.186z"/></g></g></g><g transform="translate(0 170)"><title>icon-news-tag-green-hover</title><g fill="none" fill-rule="evenodd"><g fill="#00883A" fill-rule="nonzero"><path d="M62 15.58l9 10.5v3.84l-9-10.5v8.16l9 10.5v3.84l-9-10.5v8.16l9 10.5v3.84l-9-10.5v8.16l9 10.5v3.84l-9-10.5V62h-1.497l7.715 9h-3.293l-7.714-9h-7.13l7.715 9h-3.293l-7.714-9h-7.13l7.714 9h-3.292l-7.715-9h-7.13l7.715 9h-3.293l-7.714-9h-7.13l7.715 9h-3.293l-7.714-9H0V0h62v15.58zM66.536 9L71 14.102v3.796L63.214 9h3.322zM9 62.709L16.107 71h-3.293L9 66.55v-3.84zM1 1v60h60V1H1zm29.54 29h-2.93l-5.704-9.355V30h-2.93V15.781h2.93l5.713 9.375v-9.375h2.92V30zm11.112-6.162h-5.625v3.808h6.602V30h-9.531V15.781h9.511v2.373h-6.582v3.389h5.625v2.295zm-13.308 22.06l1.914-10.117h2.92L30.023 50h-2.949l-2.314-9.512L22.445 50h-2.949l-3.154-14.219h2.92l1.924 10.098 2.343-10.098h2.48l2.335 10.117zm14.789.372c0-.554-.195-.979-.586-1.275-.39-.296-1.094-.609-2.11-.937-1.015-.33-1.82-.653-2.412-.972-1.614-.872-2.421-2.048-2.421-3.525 0-.769.216-1.454.649-2.056.433-.602 1.055-1.073 1.865-1.411.81-.339 1.72-.508 2.73-.508 1.015 0 1.92.184 2.715.552.794.368 1.41.887 1.85 1.557.44.67.66 1.433.66 2.285h-2.93c0-.65-.205-1.157-.616-1.518-.41-.361-.986-.542-1.728-.542-.716 0-1.273.151-1.67.454a1.432 1.432 0 0 0-.596 1.196c0 .463.233.85.698 1.162.466.313 1.151.606 2.056.88 1.667.5 2.881 1.122 3.643 1.865.761.742 1.142 1.666 1.142 2.773 0 1.23-.465 2.196-1.396 2.896-.931.7-2.184 1.05-3.76 1.05-1.094 0-2.09-.2-2.988-.601-.899-.4-1.584-.95-2.056-1.646s-.708-1.504-.708-2.422h2.94c0 1.57.937 2.354 2.812 2.354.697 0 1.24-.142 1.63-.425.392-.283.587-.679.587-1.186z"/></g></g></g><g transform="translate(80 170)"><title>icon-news-tag-small-black</title><g fill="none" fill-rule="evenodd"><g><path fill="#FFF" d="M47.155 11.849L54 19.835v2.922l-6.845-7.986v6.205L54 28.962v2.921l-6.845-7.986v6.206L54 38.088v2.922l-6.845-7.986v6.205L54 47.215v2.922l-6.845-7.986v5.004h-1.138L51.884 54H49.38l-5.868-6.845H38.09L43.957 54h-2.504l-5.867-6.845h-5.423L36.03 54h-2.504l-5.867-6.845h-5.423L28.104 54h-2.505l-5.867-6.845H14.31L20.177 54h-2.504l-5.868-6.845H0V0h47.155z"/><path fill="#FFF" d="M50.605 6.845L54 10.725v2.888l-5.922-6.768zM6.845 47.694L12.25 54H9.746l-2.9-3.384z"/><path fill="#232323" d="M.76.76v45.634h45.634V.761z"/><path fill="#FFF" d="M23.227 22.817h-2.228L16.66 15.7v7.116h-2.228V12.003h2.228l4.345 7.13v-7.13h2.22zm8.453-4.687H27.4v2.897h5.021v1.79h-7.25V12.003h7.235v1.804H27.4v2.578h4.278zM21.557 34.909l1.456-7.695h2.22l-2.398 10.814h-2.243l-1.76-7.234-1.76 7.234h-2.244l-2.399-10.814h2.22l1.464 7.68 1.783-7.68h1.886zm11.248.281c0-.42-.148-.743-.445-.968-.298-.226-.832-.463-1.605-.713-.772-.25-1.384-.497-1.834-.74-1.228-.663-1.842-1.557-1.842-2.68 0-.585.164-1.106.494-1.564.329-.458.802-.816 1.418-1.073.617-.258 1.309-.387 2.076-.387.773 0 1.46.14 2.065.42.604.28 1.073.675 1.408 1.185a3.1 3.1 0 0 1 .5 1.738h-2.227c0-.495-.156-.88-.468-1.155-.312-.275-.75-.412-1.315-.412-.545 0-.968.115-1.27.345a1.09 1.09 0 0 0-.453.91c0 .351.177.646.531.884.354.237.875.46 1.563.668 1.268.381 2.192.854 2.77 1.419.58.564.87 1.267.87 2.11 0 .935-.354 1.669-1.062 2.201-.708.533-1.661.799-2.86.799-.832 0-1.59-.153-2.273-.457-.683-.305-1.204-.722-1.563-1.252s-.539-1.143-.539-1.842h2.236c0 1.194.713 1.79 2.14 1.79.529 0 .942-.107 1.24-.323.297-.215.445-.516.445-.902z"/></g></g></g><g transform="translate(140 170)"><title>icon-news-tag-small-green</title><g fill="none" fill-rule="evenodd"><g><path fill="#FFF" d="M47.155 11.849L54 19.835v2.922l-6.845-7.986v6.205L54 28.962v2.921l-6.845-7.986v6.206L54 38.088v2.922l-6.845-7.986v6.205L54 47.215v2.922l-6.845-7.986v5.004h-1.138L51.884 54H49.38l-5.868-6.845H38.09L43.957 54h-2.504l-5.867-6.845h-5.423L36.03 54h-2.504l-5.867-6.845h-5.423L28.104 54h-2.505l-5.867-6.845H14.31L20.177 54h-2.504l-5.868-6.845H0V0h47.155z"/><path fill="#FFF" d="M50.605 6.845L54 10.725v2.888l-5.922-6.768zM6.845 47.694L12.25 54H9.746l-2.9-3.384z"/><path fill="#00883A" d="M.76.76v45.634h45.634V.761z"/><path fill="#FFF" d="M23.227 22.817h-2.228L16.66 15.7v7.116h-2.228V12.003h2.228l4.345 7.13v-7.13h2.22zm8.453-4.687H27.4v2.897h5.021v1.79h-7.25V12.003h7.235v1.804H27.4v2.578h4.278zM21.557 34.909l1.456-7.695h2.22l-2.398 10.814h-2.243l-1.76-7.234-1.76 7.234h-2.244l-2.399-10.814h2.22l1.464 7.68 1.783-7.68h1.886zm11.248.281c0-.42-.148-.743-.445-.968-.298-.226-.832-.463-1.605-.713-.772-.25-1.384-.497-1.834-.74-1.228-.663-1.842-1.557-1.842-2.68 0-.585.164-1.106.494-1.564.329-.458.802-.816 1.418-1.073.617-.258 1.309-.387 2.076-.387.773 0 1.46.14 2.065.42.604.28 1.073.675 1.408 1.185a3.1 3.1 0 0 1 .5 1.738h-2.227c0-.495-.156-.88-.468-1.155-.312-.275-.75-.412-1.315-.412-.545 0-.968.115-1.27.345a1.09 1.09 0 0 0-.453.91c0 .351.177.646.531.884.354.237.875.46 1.563.668 1.268.381 2.192.854 2.77 1.419.58.564.87 1.267.87 2.11 0 .935-.354 1.669-1.062 2.201-.708.533-1.661.799-2.86.799-.832 0-1.59-.153-2.273-.457-.683-.305-1.204-.722-1.563-1.252s-.539-1.143-.539-1.842h2.236c0 1.194.713 1.79 2.14 1.79.529 0 .942-.107 1.24-.323.297-.215.445-.516.445-.902z"/></g></g></g><g transform="translate(250)"><title>icon-news-tag-small-green-hover</title><g fill="none" fill-rule="evenodd"><g fill="#00883A" fill-rule="nonzero"><path d="M47.155 11.849L54 19.835v2.922l-6.845-7.986v6.205L54 28.962v2.921l-6.845-7.986v6.206L54 38.088v2.922l-6.845-7.986v6.205L54 47.215v2.922l-6.845-7.986v5.004h-1.138L51.884 54H49.38l-5.868-6.845H38.09L43.957 54h-2.504l-5.867-6.845h-5.423L36.03 54h-2.504l-5.867-6.845h-5.423L28.104 54h-2.505l-5.867-6.845H14.31L20.177 54h-2.504l-5.868-6.845H0V0h47.155v11.849zm3.45-5.004L54 10.725v2.888l-5.922-6.768h2.527zm-43.76 40.85L12.25 54H9.746l-2.9-3.384v-2.922zM.761.76v45.633h45.633V.761H.761zm22.466 22.056h-2.228L16.66 15.7v7.116h-2.228V12.003h2.228l4.345 7.13v-7.13h2.22v10.814zm8.452-4.687h-4.278v2.897h5.021v1.79h-7.25V12.003h7.235v1.804h-5.006v2.578h4.278v1.745zM21.557 34.91l1.456-7.695h2.22l-2.398 10.814h-2.243l-1.76-7.234-1.76 7.234h-2.244l-2.399-10.814h2.22l1.464 7.68 1.783-7.68h1.886l1.775 7.695zm11.248.282c0-.421-.148-.744-.445-.97-.298-.225-.832-.462-1.605-.712-.772-.25-1.384-.497-1.834-.74-1.228-.663-1.842-1.557-1.842-2.68 0-.585.164-1.106.494-1.564.329-.458.802-.816 1.418-1.073.617-.258 1.309-.387 2.076-.387.773 0 1.46.14 2.065.42.604.28 1.073.675 1.408 1.185a3.1 3.1 0 0 1 .5 1.738h-2.227c0-.495-.156-.88-.468-1.155-.312-.275-.75-.412-1.315-.412-.545 0-.968.115-1.27.345a1.09 1.09 0 0 0-.453.91c0 .351.177.646.531.884.354.237.875.46 1.563.668 1.268.381 2.192.854 2.77 1.419.58.564.87 1.267.87 2.11 0 .935-.354 1.669-1.062 2.201-.708.533-1.661.799-2.86.799-.832 0-1.59-.153-2.273-.457-.683-.305-1.204-.722-1.563-1.252s-.539-1.143-.539-1.842h2.236c0 1.194.713 1.79 2.14 1.79.529 0 .942-.107 1.24-.323.297-.215.445-.516.445-.902z"/></g></g></g><g transform="translate(105 305)"><g transform="scale(.03375)"><path d="M400 0C179.067 0 0 179.067 0 400s179.067 400 400 400 400-179.067 400-400S620.933 0 400 0zM245.633 145.933c17.5 0 31.567 14.367 31.567 31.567s-14.067 31.567-31.567 31.567c-17.296-.055-31.512-14.271-31.566-31.567a31.482 31.482 0 0 1 31.566-31.567zM221.567 247.2H269.7v334.7h-48.133V247.2zm118.733 0h130c123.733 0 178.133 88.433 178.133 167.5 0 85.933-67.2 167.5-177.5 167.5H340.3v-335zm48.133 43.433v248.134H465c109.067 0 134.067-82.8 134.067-124.067 0-67.2-42.8-124.067-136.567-124.067h-74.067z" fill="#0f1987"/></g></g><g transform="translate(140 305)"><g transform="scale(.03375)"><path d="M400 0C179.067 0 0 179.067 0 400s179.067 400 400 400 400-179.067 400-400S620.933 0 400 0zM245.633 145.933c17.5 0 31.567 14.367 31.567 31.567s-14.067 31.567-31.567 31.567c-17.296-.055-31.512-14.271-31.566-31.567a31.482 31.482 0 0 1 31.566-31.567zM221.567 247.2H269.7v334.7h-48.133V247.2zm118.733 0h130c123.733 0 178.133 88.433 178.133 167.5 0 85.933-67.2 167.5-177.5 167.5H340.3v-335zm48.133 43.433v248.134H465c109.067 0 134.067-82.8 134.067-124.067 0-67.2-42.8-124.067-136.567-124.067h-74.067z" fill="#00883a"/></g></g><g transform="translate(250 370)"><g transform="scale(.025)"><path d="M400 0C179.067 0 0 179.067 0 400s179.067 400 400 400 400-179.067 400-400S620.933 0 400 0zM245.633 145.933c17.5 0 31.567 14.367 31.567 31.567s-14.067 31.567-31.567 31.567c-17.296-.055-31.512-14.271-31.566-31.567a31.482 31.482 0 0 1 31.566-31.567zM221.567 247.2H269.7v334.7h-48.133V247.2zm118.733 0h130c123.733 0 178.133 88.433 178.133 167.5 0 85.933-67.2 167.5-177.5 167.5H340.3v-335zm48.133 43.433v248.134H465c109.067 0 134.067-82.8 134.067-124.067 0-67.2-42.8-124.067-136.567-124.067h-74.067z" fill="#0f1987"/></g></g><g transform="translate(275 370)"><g transform="scale(.025)"><path d="M400 0C179.067 0 0 179.067 0 400s179.067 400 400 400 400-179.067 400-400S620.933 0 400 0zM245.633 145.933c17.5 0 31.567 14.367 31.567 31.567s-14.067 31.567-31.567 31.567c-17.296-.055-31.512-14.271-31.566-31.567a31.482 31.482 0 0 1 31.566-31.567zM221.567 247.2H269.7v334.7h-48.133V247.2zm118.733 0h130c123.733 0 178.133 88.433 178.133 167.5 0 85.933-67.2 167.5-177.5 167.5H340.3v-335zm48.133 43.433v248.134H465c109.067 0 134.067-82.8 134.067-124.067 0-67.2-42.8-124.067-136.567-124.067h-74.067z" fill="#00883a"/></g></g><g transform="translate(300 370)"><g transform="scale(.025)"><path d="M400 0C179.067 0 0 179.067 0 400s179.067 400 400 400 400-179.067 400-400S620.933 0 400 0zM245.633 145.933c17.5 0 31.567 14.367 31.567 31.567s-14.067 31.567-31.567 31.567c-17.296-.055-31.512-14.271-31.566-31.567a31.482 31.482 0 0 1 31.566-31.567zM221.567 247.2H269.7v334.7h-48.133V247.2zm118.733 0h130c123.733 0 178.133 88.433 178.133 167.5 0 85.933-67.2 167.5-177.5 167.5H340.3v-335zm48.133 43.433v248.134H465c109.067 0 134.067-82.8 134.067-124.067 0-67.2-42.8-124.067-136.567-124.067h-74.067z" fill="#fff"/></g></g><g transform="translate(175 305)"><g transform="scale(.03375)"><path d="M400 0C179.067 0 0 179.067 0 400s179.067 400 400 400 400-179.067 400-400S620.933 0 400 0zM245.633 145.933c17.5 0 31.567 14.367 31.567 31.567s-14.067 31.567-31.567 31.567c-17.296-.055-31.512-14.271-31.566-31.567a31.482 31.482 0 0 1 31.566-31.567zM221.567 247.2H269.7v334.7h-48.133V247.2zm118.733 0h130c123.733 0 178.133 88.433 178.133 167.5 0 85.933-67.2 167.5-177.5 167.5H340.3v-335zm48.133 43.433v248.134H465c109.067 0 134.067-82.8 134.067-124.067 0-67.2-42.8-124.067-136.567-124.067h-74.067z" fill="#fff"/></g></g><g transform="translate(325 370)"><title>icon_phone_green</title><defs><path d="M2.345 6.11c.429 1.899 1.476 3.837 3.097 5.456 1.622 1.619 3.553 2.664 5.439 3.09 1.425.324 2.624.21 2.858-.024.004-.004.338-.333.432-.428.871-.888.92-1.169.046-1.87-1.12-.899-1.411-.831-2.386.145l-.19.19c-1.277 1.276-2.828.27-5.244-2.142C3.979 8.113 2.97 6.565 4.25 5.287l.096-.096.162-.158c.964-.94 1.019-1.163.155-2.236-.717-.89-1-.842-1.893.029-.092.09-.432.432-.404.404-.232.232-.346 1.444-.022 2.88zm3.546.388L5.89 6.47a.42.42 0 0 0 .001.008v.019zm.284.54c.35.537.941 1.216 1.717 1.99.776.775 1.457 1.366 1.995 1.716.178.115.329.196.443.243 1.657-1.66 3.103-1.996 5.212-.304 2.07 1.66 1.774 3.338.14 5.003-.109.11-.454.45-.448.444-1.9 1.9-7.61.606-11.287-3.066C.267 9.39-1.033 3.63.871 1.732c-.041.042.315-.317.422-.422 1.671-1.63 3.348-1.916 5.02.16 1.671 2.075 1.331 3.463-.326 5.079l-.054.052c.047.113.128.262.242.437z" id="am"/></defs><g fill="none" fill-rule="evenodd"><g transform="translate(1 1)"><mask id="an" fill="#fff"><use xlink:href="#am"/></mask><use fill="#00883A" fill-rule="nonzero" xlink:href="#am"/><g mask="url(#an)" fill="#00883A"><path d="M0 0h17v17H0z"/></g></g></g></g><g transform="translate(350 370)"><title>icon_phone_grey</title><defs><path d="M2.345 6.11c.429 1.899 1.476 3.837 3.097 5.456 1.622 1.619 3.553 2.664 5.439 3.09 1.425.324 2.624.21 2.858-.024.004-.004.338-.333.432-.428.871-.888.92-1.169.046-1.87-1.12-.899-1.411-.831-2.386.145l-.19.19c-1.277 1.276-2.828.27-5.244-2.142C3.979 8.113 2.97 6.565 4.25 5.287l.096-.096.162-.158c.964-.94 1.019-1.163.155-2.236-.717-.89-1-.842-1.893.029-.092.09-.432.432-.404.404-.232.232-.346 1.444-.022 2.88zm3.546.388L5.89 6.47a.42.42 0 0 0 .001.008v.019zm.284.54c.35.537.941 1.216 1.717 1.99.776.775 1.457 1.366 1.995 1.716.178.115.329.196.443.243 1.657-1.66 3.103-1.996 5.212-.304 2.07 1.66 1.774 3.338.14 5.003-.109.11-.454.45-.448.444-1.9 1.9-7.61.606-11.287-3.066C.267 9.39-1.033 3.63.871 1.732c-.041.042.315-.317.422-.422 1.671-1.63 3.348-1.916 5.02.16 1.671 2.075 1.331 3.463-.326 5.079l-.054.052c.047.113.128.262.242.437z" id="ao"/></defs><g fill="none" fill-rule="evenodd"><g transform="translate(1 1)"><mask id="ap" fill="#fff"><use xlink:href="#ao"/></mask><use fill="#00883A" fill-rule="nonzero" xlink:href="#ao"/><g mask="url(#ap)" fill="#232323"><path d="M0 0h17v17H0z"/></g></g></g></g><g transform="translate(425)"><title>plus</title><defs><path d="M7 5h5v2H7v5H5V7H0V5h5V0h2v5z" id="aq"/></defs><g fill="none" fill-rule="evenodd"><g transform="translate(-1099 -1131)"><g transform="translate(309 1107)"><g transform="translate(790 24)"><use fill="#4A4A4A" xlink:href="#aq"/></g></g></g></g></g><g transform="translate(425 20)"><title>plus</title><defs><path d="M7 5h5v2H7v5H5V7H0V5h5V0h2v5z" id="ar"/></defs><g fill="none" fill-rule="evenodd"><g transform="translate(-1099 -351)"><g transform="translate(309 134)"><g transform="translate(0 193)"><g transform="translate(790 24)"><mask id="as" fill="#fff"><use xlink:href="#ar"/></mask><use fill="#4A4A4A" xlink:href="#ar"/><g mask="url(#as)" fill="#00883A"><path d="M0 0h12v12H0z"/></g></g></g></g></g></g></g><g transform="translate(0 250)"><title>icon-publikation-black</title><defs><path d="M35.481 30.957h-7.5v7.798l-13.573.076V12.409H35.48v18.548zM19.241 18.44h11.407v-1.174H19.241v1.174zm0 4.919h11.407v-1.174H19.241v1.174zm0 4.918h11.407v-1.174H19.241v1.174zm0 4.919h4.888V32.02h-4.888v1.174zm16.319-1.238l-6.507 6.715v-6.715h6.507z" id="at"/></defs><g fill="none" fill-rule="evenodd"><g><path fill="#232323" d="M0 0h50v50H0z"/><use fill="#FFF" xlink:href="#at"/></g></g></g><g transform="translate(55 250)"><title>icon-publikation-green</title><defs><path d="M35.481 30.957h-7.5v7.798l-13.573.076V12.409H35.48v18.548zM19.241 18.44h11.407v-1.174H19.241v1.174zm0 4.919h11.407v-1.174H19.241v1.174zm0 4.918h11.407v-1.174H19.241v1.174zm0 4.919h4.888V32.02h-4.888v1.174zm16.319-1.238l-6.507 6.715v-6.715h6.507z" id="au"/></defs><g fill="none" fill-rule="evenodd"><g><path fill="#FFF" d="M0 0h50v50H0z"/><path d="M1 1v48h48V1H1zM0 0h50v50H0V0z" fill="#00883A" fill-rule="nonzero"/><use fill="#00883A" xlink:href="#au"/></g></g></g><g transform="translate(210 305)"><g transform="translate(.006) scale(.84375)"><path d="M16.04 0c8.831 0 16 7.169 16 16s-7.169 16-16 16-16-7.169-16-16 7.169-16 16-16zm-3.22 10.972c-1.197 0-2.15.061-3.043.061-.812 0-1.623 0-2.13-.02v.588l.77.142c.527.102.832.346.832 1.604v7.995c0 1.259-.305 1.502-.832 1.603l-.77.142v.589c.547-.02 1.501-.061 2.454-.061.914 0 2.09.041 2.598.061v-.588l-1.056-.142c-.547-.082-.831-.345-.831-1.604v-3.388c.487.04.913.04 1.562.04 1.238 2.212 2.416 3.876 3.085 4.647.609.731 1.542 1.197 2.719 1.197.345 0 .711-.061.934-.163v-.527c-.731 0-1.462-.507-1.989-1.075-.893-.974-2.09-2.537-3.085-4.302 1.643-.386 2.862-1.928 2.862-3.471 0-2.272-1.766-3.328-4.079-3.328h-.001zm-.364.914c1.704 0 2.719.893 2.719 2.516 0 1.603-1.096 2.679-2.902 2.679-.69 0-.995-.021-1.461-.061v-5.093c.467-.042 1.095-.042 1.643-.042l.001.001zm8.417-5.047c-.579 0-1.068.134-1.468.4-.399.267-.687.663-.859 1.19-.034.101-.06.204-.08.309-.022.125-.04.25-.055.376a6.33 6.33 0 0 0-.035.515c-.007.199-.009.44-.009.719-.001.241.002.481.009.721a6.332 6.332 0 0 0 .09.89h-.003c.019.105.046.209.08.31.173.527.46.923.86 1.19.4.267.889.4 1.47.4.566 0 1.088-.151 1.491-.427.403-.277.665-.649.832-1.169.054-.166.096-.395.125-.659.026-.284.036-.569.031-.855v-.581c0-.067-.034-.1-.099-.1h-2.171c-.066 0-.099.033-.099.1v.677c0 .067.033.099.099.099h1.18c.04 0 .06.021.06.061 0 .255 0 .439-.026.613-.027.173-.071.316-.104.429-.076.273-.246.47-.452.62-.205.151-.522.248-.869.248-.386 0-.638-.106-.857-.25-.217-.143-.366-.321-.474-.648a2.255 2.255 0 0 1-.105-.54 17.978 17.978 0 0 1-.034-1.129c0-.222.003-.443.01-.665.005-.155.014-.31.025-.464.013-.183.048-.364.105-.539a1.34 1.34 0 0 1 .526-.715c.243-.173.42-.249.805-.249.36 0 .577.068.81.214.234.147.374.349.541.655.034.067.079.084.141.05l.739-.305c.053-.034.064-.081.03-.141a2.534 2.534 0 0 0-.33-.525 2.14 2.14 0 0 0-.481-.43 2.389 2.389 0 0 0-.64-.291 2.866 2.866 0 0 0-.809-.104z" fill="#0f1987"/></g></g><g transform="translate(245 305)"><g transform="translate(.006) scale(.84375)"><path d="M16.04 0c8.831 0 16 7.169 16 16s-7.169 16-16 16-16-7.169-16-16 7.169-16 16-16zm-3.22 10.972c-1.197 0-2.15.061-3.043.061-.812 0-1.623 0-2.13-.02v.588l.77.142c.527.102.832.346.832 1.604v7.995c0 1.259-.305 1.502-.832 1.603l-.77.142v.589c.547-.02 1.501-.061 2.454-.061.914 0 2.09.041 2.598.061v-.588l-1.056-.142c-.547-.082-.831-.345-.831-1.604v-3.388c.487.04.913.04 1.562.04 1.238 2.212 2.416 3.876 3.085 4.647.609.731 1.542 1.197 2.719 1.197.345 0 .711-.061.934-.163v-.527c-.731 0-1.462-.507-1.989-1.075-.893-.974-2.09-2.537-3.085-4.302 1.643-.386 2.862-1.928 2.862-3.471 0-2.272-1.766-3.328-4.079-3.328h-.001zm-.364.914c1.704 0 2.719.893 2.719 2.516 0 1.603-1.096 2.679-2.902 2.679-.69 0-.995-.021-1.461-.061v-5.093c.467-.042 1.095-.042 1.643-.042l.001.001zm8.417-5.047c-.579 0-1.068.134-1.468.4-.399.267-.687.663-.859 1.19-.034.101-.06.204-.08.309-.022.125-.04.25-.055.376a6.33 6.33 0 0 0-.035.515c-.007.199-.009.44-.009.719-.001.241.002.481.009.721a6.332 6.332 0 0 0 .09.89h-.003c.019.105.046.209.08.31.173.527.46.923.86 1.19.4.267.889.4 1.47.4.566 0 1.088-.151 1.491-.427.403-.277.665-.649.832-1.169.054-.166.096-.395.125-.659.026-.284.036-.569.031-.855v-.581c0-.067-.034-.1-.099-.1h-2.171c-.066 0-.099.033-.099.1v.677c0 .067.033.099.099.099h1.18c.04 0 .06.021.06.061 0 .255 0 .439-.026.613-.027.173-.071.316-.104.429-.076.273-.246.47-.452.62-.205.151-.522.248-.869.248-.386 0-.638-.106-.857-.25-.217-.143-.366-.321-.474-.648a2.255 2.255 0 0 1-.105-.54 17.978 17.978 0 0 1-.034-1.129c0-.222.003-.443.01-.665.005-.155.014-.31.025-.464.013-.183.048-.364.105-.539a1.34 1.34 0 0 1 .526-.715c.243-.173.42-.249.805-.249.36 0 .577.068.81.214.234.147.374.349.541.655.034.067.079.084.141.05l.739-.305c.053-.034.064-.081.03-.141a2.534 2.534 0 0 0-.33-.525 2.14 2.14 0 0 0-.481-.43 2.389 2.389 0 0 0-.64-.291 2.866 2.866 0 0 0-.809-.104z" fill="#00883a"/></g></g><g transform="translate(375 370)"><g transform="translate(.015) scale(.62375)"><path d="M16.04 0c8.831 0 16 7.169 16 16s-7.169 16-16 16-16-7.169-16-16 7.169-16 16-16zm-3.22 10.972c-1.197 0-2.15.061-3.043.061-.812 0-1.623 0-2.13-.02v.588l.77.142c.527.102.832.346.832 1.604v7.995c0 1.259-.305 1.502-.832 1.603l-.77.142v.589c.547-.02 1.501-.061 2.454-.061.914 0 2.09.041 2.598.061v-.588l-1.056-.142c-.547-.082-.831-.345-.831-1.604v-3.388c.487.04.913.04 1.562.04 1.238 2.212 2.416 3.876 3.085 4.647.609.731 1.542 1.197 2.719 1.197.345 0 .711-.061.934-.163v-.527c-.731 0-1.462-.507-1.989-1.075-.893-.974-2.09-2.537-3.085-4.302 1.643-.386 2.862-1.928 2.862-3.471 0-2.272-1.766-3.328-4.079-3.328h-.001zm-.364.914c1.704 0 2.719.893 2.719 2.516 0 1.603-1.096 2.679-2.902 2.679-.69 0-.995-.021-1.461-.061v-5.093c.467-.042 1.095-.042 1.643-.042l.001.001zm8.417-5.047c-.579 0-1.068.134-1.468.4-.399.267-.687.663-.859 1.19-.034.101-.06.204-.08.309-.022.125-.04.25-.055.376a6.33 6.33 0 0 0-.035.515c-.007.199-.009.44-.009.719-.001.241.002.481.009.721a6.332 6.332 0 0 0 .09.89h-.003c.019.105.046.209.08.31.173.527.46.923.86 1.19.4.267.889.4 1.47.4.566 0 1.088-.151 1.491-.427.403-.277.665-.649.832-1.169.054-.166.096-.395.125-.659.026-.284.036-.569.031-.855v-.581c0-.067-.034-.1-.099-.1h-2.171c-.066 0-.099.033-.099.1v.677c0 .067.033.099.099.099h1.18c.04 0 .06.021.06.061 0 .255 0 .439-.026.613-.027.173-.071.316-.104.429-.076.273-.246.47-.452.62-.205.151-.522.248-.869.248-.386 0-.638-.106-.857-.25-.217-.143-.366-.321-.474-.648a2.255 2.255 0 0 1-.105-.54 17.978 17.978 0 0 1-.034-1.129c0-.222.003-.443.01-.665.005-.155.014-.31.025-.464.013-.183.048-.364.105-.539a1.34 1.34 0 0 1 .526-.715c.243-.173.42-.249.805-.249.36 0 .577.068.81.214.234.147.374.349.541.655.034.067.079.084.141.05l.739-.305c.053-.034.064-.081.03-.141a2.534 2.534 0 0 0-.33-.525 2.14 2.14 0 0 0-.481-.43 2.389 2.389 0 0 0-.64-.291 2.866 2.866 0 0 0-.809-.104z" fill="#0f1987"/></g></g><g transform="translate(400)"><g transform="translate(.015) scale(.62375)"><path d="M16.04 0c8.831 0 16 7.169 16 16s-7.169 16-16 16-16-7.169-16-16 7.169-16 16-16zm-3.22 10.972c-1.197 0-2.15.061-3.043.061-.812 0-1.623 0-2.13-.02v.588l.77.142c.527.102.832.346.832 1.604v7.995c0 1.259-.305 1.502-.832 1.603l-.77.142v.589c.547-.02 1.501-.061 2.454-.061.914 0 2.09.041 2.598.061v-.588l-1.056-.142c-.547-.082-.831-.345-.831-1.604v-3.388c.487.04.913.04 1.562.04 1.238 2.212 2.416 3.876 3.085 4.647.609.731 1.542 1.197 2.719 1.197.345 0 .711-.061.934-.163v-.527c-.731 0-1.462-.507-1.989-1.075-.893-.974-2.09-2.537-3.085-4.302 1.643-.386 2.862-1.928 2.862-3.471 0-2.272-1.766-3.328-4.079-3.328h-.001zm-.364.914c1.704 0 2.719.893 2.719 2.516 0 1.603-1.096 2.679-2.902 2.679-.69 0-.995-.021-1.461-.061v-5.093c.467-.042 1.095-.042 1.643-.042l.001.001zm8.417-5.047c-.579 0-1.068.134-1.468.4-.399.267-.687.663-.859 1.19-.034.101-.06.204-.08.309-.022.125-.04.25-.055.376a6.33 6.33 0 0 0-.035.515c-.007.199-.009.44-.009.719-.001.241.002.481.009.721a6.332 6.332 0 0 0 .09.89h-.003c.019.105.046.209.08.31.173.527.46.923.86 1.19.4.267.889.4 1.47.4.566 0 1.088-.151 1.491-.427.403-.277.665-.649.832-1.169.054-.166.096-.395.125-.659.026-.284.036-.569.031-.855v-.581c0-.067-.034-.1-.099-.1h-2.171c-.066 0-.099.033-.099.1v.677c0 .067.033.099.099.099h1.18c.04 0 .06.021.06.061 0 .255 0 .439-.026.613-.027.173-.071.316-.104.429-.076.273-.246.47-.452.62-.205.151-.522.248-.869.248-.386 0-.638-.106-.857-.25-.217-.143-.366-.321-.474-.648a2.255 2.255 0 0 1-.105-.54 17.978 17.978 0 0 1-.034-1.129c0-.222.003-.443.01-.665.005-.155.014-.31.025-.464.013-.183.048-.364.105-.539a1.34 1.34 0 0 1 .526-.715c.243-.173.42-.249.805-.249.36 0 .577.068.81.214.234.147.374.349.541.655.034.067.079.084.141.05l.739-.305c.053-.034.064-.081.03-.141a2.534 2.534 0 0 0-.33-.525 2.14 2.14 0 0 0-.481-.43 2.389 2.389 0 0 0-.64-.291 2.866 2.866 0 0 0-.809-.104z" fill="#00883a"/></g></g><g transform="translate(400 25)"><g transform="translate(.015) scale(.62375)"><path d="M16.04 0c8.831 0 16 7.169 16 16s-7.169 16-16 16-16-7.169-16-16 7.169-16 16-16zm-3.22 10.972c-1.197 0-2.15.061-3.043.061-.812 0-1.623 0-2.13-.02v.588l.77.142c.527.102.832.346.832 1.604v7.995c0 1.259-.305 1.502-.832 1.603l-.77.142v.589c.547-.02 1.501-.061 2.454-.061.914 0 2.09.041 2.598.061v-.588l-1.056-.142c-.547-.082-.831-.345-.831-1.604v-3.388c.487.04.913.04 1.562.04 1.238 2.212 2.416 3.876 3.085 4.647.609.731 1.542 1.197 2.719 1.197.345 0 .711-.061.934-.163v-.527c-.731 0-1.462-.507-1.989-1.075-.893-.974-2.09-2.537-3.085-4.302 1.643-.386 2.862-1.928 2.862-3.471 0-2.272-1.766-3.328-4.079-3.328h-.001zm-.364.914c1.704 0 2.719.893 2.719 2.516 0 1.603-1.096 2.679-2.902 2.679-.69 0-.995-.021-1.461-.061v-5.093c.467-.042 1.095-.042 1.643-.042l.001.001zm8.417-5.047c-.579 0-1.068.134-1.468.4-.399.267-.687.663-.859 1.19-.034.101-.06.204-.08.309-.022.125-.04.25-.055.376a6.33 6.33 0 0 0-.035.515c-.007.199-.009.44-.009.719-.001.241.002.481.009.721a6.332 6.332 0 0 0 .09.89h-.003c.019.105.046.209.08.31.173.527.46.923.86 1.19.4.267.889.4 1.47.4.566 0 1.088-.151 1.491-.427.403-.277.665-.649.832-1.169.054-.166.096-.395.125-.659.026-.284.036-.569.031-.855v-.581c0-.067-.034-.1-.099-.1h-2.171c-.066 0-.099.033-.099.1v.677c0 .067.033.099.099.099h1.18c.04 0 .06.021.06.061 0 .255 0 .439-.026.613-.027.173-.071.316-.104.429-.076.273-.246.47-.452.62-.205.151-.522.248-.869.248-.386 0-.638-.106-.857-.25-.217-.143-.366-.321-.474-.648a2.255 2.255 0 0 1-.105-.54 17.978 17.978 0 0 1-.034-1.129c0-.222.003-.443.01-.665.005-.155.014-.31.025-.464.013-.183.048-.364.105-.539a1.34 1.34 0 0 1 .526-.715c.243-.173.42-.249.805-.249.36 0 .577.068.81.214.234.147.374.349.541.655.034.067.079.084.141.05l.739-.305c.053-.034.064-.081.03-.141a2.534 2.534 0 0 0-.33-.525 2.14 2.14 0 0 0-.481-.43 2.389 2.389 0 0 0-.64-.291 2.866 2.866 0 0 0-.809-.104z" fill="#fff"/></g></g><g transform="translate(280 305)"><g transform="translate(.006) scale(.84375)"><path d="M16.04 0c8.831 0 16 7.169 16 16s-7.169 16-16 16-16-7.169-16-16 7.169-16 16-16zm-3.22 10.972c-1.197 0-2.15.061-3.043.061-.812 0-1.623 0-2.13-.02v.588l.77.142c.527.102.832.346.832 1.604v7.995c0 1.259-.305 1.502-.832 1.603l-.77.142v.589c.547-.02 1.501-.061 2.454-.061.914 0 2.09.041 2.598.061v-.588l-1.056-.142c-.547-.082-.831-.345-.831-1.604v-3.388c.487.04.913.04 1.562.04 1.238 2.212 2.416 3.876 3.085 4.647.609.731 1.542 1.197 2.719 1.197.345 0 .711-.061.934-.163v-.527c-.731 0-1.462-.507-1.989-1.075-.893-.974-2.09-2.537-3.085-4.302 1.643-.386 2.862-1.928 2.862-3.471 0-2.272-1.766-3.328-4.079-3.328h-.001zm-.364.914c1.704 0 2.719.893 2.719 2.516 0 1.603-1.096 2.679-2.902 2.679-.69 0-.995-.021-1.461-.061v-5.093c.467-.042 1.095-.042 1.643-.042l.001.001zm8.417-5.047c-.579 0-1.068.134-1.468.4-.399.267-.687.663-.859 1.19-.034.101-.06.204-.08.309-.022.125-.04.25-.055.376a6.33 6.33 0 0 0-.035.515c-.007.199-.009.44-.009.719-.001.241.002.481.009.721a6.332 6.332 0 0 0 .09.89h-.003c.019.105.046.209.08.31.173.527.46.923.86 1.19.4.267.889.4 1.47.4.566 0 1.088-.151 1.491-.427.403-.277.665-.649.832-1.169.054-.166.096-.395.125-.659.026-.284.036-.569.031-.855v-.581c0-.067-.034-.1-.099-.1h-2.171c-.066 0-.099.033-.099.1v.677c0 .067.033.099.099.099h1.18c.04 0 .06.021.06.061 0 .255 0 .439-.026.613-.027.173-.071.316-.104.429-.076.273-.246.47-.452.62-.205.151-.522.248-.869.248-.386 0-.638-.106-.857-.25-.217-.143-.366-.321-.474-.648a2.255 2.255 0 0 1-.105-.54 17.978 17.978 0 0 1-.034-1.129c0-.222.003-.443.01-.665.005-.155.014-.31.025-.464.013-.183.048-.364.105-.539a1.34 1.34 0 0 1 .526-.715c.243-.173.42-.249.805-.249.36 0 .577.068.81.214.234.147.374.349.541.655.034.067.079.084.141.05l.739-.305c.053-.034.064-.081.03-.141a2.534 2.534 0 0 0-.33-.525 2.14 2.14 0 0 0-.481-.43 2.389 2.389 0 0 0-.64-.291 2.866 2.866 0 0 0-.809-.104z" fill="#fff"/></g></g><g transform="translate(120 340)"><title>magnifier</title><g><g><g><defs><filter id="av" filterUnits="userSpaceOnUse" x="0" y="0" width="21" height="21"><feColorMatrix values="1 0 0 0 0 0 1 0 0 0 0 0 1 0 0 0 0 0 1 0"/></filter></defs><mask maskUnits="userSpaceOnUse" x="0" y="0" width="21" height="21" id="aw"><g filter="url(#av)"><path fill="#FFF" d="M15.744 13.979L21 19.234 19.234 21l-5.256-5.256a8.743 8.743 0 1 1 3.508-7.001 8.705 8.705 0 0 1-1.742 5.236zm-7.001 1.008a6.245 6.245 0 1 0 0-12.49 6.245 6.245 0 0 0 0 12.49z"/></g></mask><g mask="url(#aw)"><path fill="#232323" d="M0 0h21v21H0z"/></g></g></g></g></g><g transform="translate(150 340)"><title>magnifier</title><g><g><g><defs><filter id="ax" filterUnits="userSpaceOnUse" x="0" y="0" width="21" height="21"><feColorMatrix values="1 0 0 0 0 0 1 0 0 0 0 0 1 0 0 0 0 0 1 0"/></filter></defs><mask maskUnits="userSpaceOnUse" x="0" y="0" width="21" height="21" id="ay"><g filter="url(#ax)"><path fill="#FFF" d="M15.744 13.979L21 19.234 19.234 21l-5.256-5.256a8.743 8.743 0 1 1 3.508-7.001 8.705 8.705 0 0 1-1.742 5.236zm-7.001 1.008a6.245 6.245 0 1 0 0-12.49 6.245 6.245 0 0 0 0 12.49z"/></g></mask><g mask="url(#ay)"><path fill="#00883A" d="M0 0h21v21H0z"/></g></g></g></g></g><g transform="translate(180 340)"><title>magnifier</title><g><g><g><defs><filter id="az" filterUnits="userSpaceOnUse" x="0" y="0" width="21" height="21"><feColorMatrix values="1 0 0 0 0 0 1 0 0 0 0 0 1 0 0 0 0 0 1 0"/></filter></defs><mask maskUnits="userSpaceOnUse" x="0" y="0" width="21" height="21" id="aA"><g filter="url(#az)"><path fill="#FFF" d="M15.744 13.979L21 19.234 19.234 21l-5.256-5.256a8.743 8.743 0 1 1 3.508-7.001 8.705 8.705 0 0 1-1.742 5.236zm-7.001 1.008a6.245 6.245 0 1 0 0-12.49 6.245 6.245 0 0 0 0 12.49z"/></g></mask><g mask="url(#aA)"><path fill="#FFF" d="M0 0h21v21H0z"/></g></g></g></g></g><g transform="translate(425 40)"><g><g transform="rotate(180 6.998 7)"><path d="M0 6l6.998-6 6.998 6H0z" fill="#fff"/></g><path d="M0 6l6.998-6 6.998 6H0z" fill="#fff"/></g></g><g transform="translate(425 60)"><g transform="rotate(180 6.998 5)"><path d="M0 6l6.998-6 6.998 6H0z" fill="#fff"/></g></g><g transform="translate(425 80)"><g transform="translate(0 4)"><path d="M0 6l6.998-6 6.998 6H0z" fill="#fff"/></g></g><g transform="translate(425 280)"><title>Shape</title><path fill="#00883A" d="M2.5 2.5h9v9h-9z"/></g><g transform="translate(315 305)"><g transform="translate(.29) scale(.02202)"><path d="M714.163 519.284L1160.89 0h-105.86L667.137 450.887 357.328 0H0l468.492 681.821L0 1226.37h105.866l409.625-476.152 327.181 476.152H1200L714.137 519.284h.026zM569.165 687.828l-47.468-67.894-377.686-540.24h162.604l304.797 435.991 47.468 67.894 396.2 566.721H892.476L569.165 687.854v-.026z" fill="#0f1987"/></g></g><g transform="translate(365)"><g transform="translate(.29) scale(.02202)"><path d="M714.163 519.284L1160.89 0h-105.86L667.137 450.887 357.328 0H0l468.492 681.821L0 1226.37h105.866l409.625-476.152 327.181 476.152H1200L714.137 519.284h.026zM569.165 687.828l-47.468-67.894-377.686-540.24h162.604l304.797 435.991 47.468 67.894 396.2 566.721H892.476L569.165 687.854v-.026z" fill="#00883a"/></g></g><g transform="translate(250 225)"><g transform="translate(1.204) scale(.0155)"><path d="M714.163 519.284L1160.89 0h-105.86L667.137 450.887 357.328 0H0l468.492 681.821L0 1226.37h105.866l409.625-476.152 327.181 476.152H1200L714.137 519.284h.026zM569.165 687.828l-47.468-67.894-377.686-540.24h162.604l304.797 435.991 47.468 67.894 396.2 566.721H892.476L569.165 687.854v-.026z" fill="#0f1987"/></g></g><g transform="translate(400 50)"><g transform="translate(.215) scale(.0163)"><path d="M714.163 519.284L1160.89 0h-105.86L667.137 450.887 357.328 0H0l468.492 681.821L0 1226.37h105.866l409.625-476.152 327.181 476.152H1200L714.137 519.284h.026zM569.165 687.828l-47.468-67.894-377.686-540.24h162.604l304.797 435.991 47.468 67.894 396.2 566.721H892.476L569.165 687.854v-.026z" fill="#0f1987"/></g></g><g transform="translate(400 75)"><g transform="translate(.215) scale(.0163)"><path d="M714.163 519.284L1160.89 0h-105.86L667.137 450.887 357.328 0H0l468.492 681.821L0 1226.37h105.866l409.625-476.152 327.181 476.152H1200L714.137 519.284h.026zM569.165 687.828l-47.468-67.894-377.686-540.24h162.604l304.797 435.991 47.468 67.894 396.2 566.721H892.476L569.165 687.854v-.026z" fill="#00883a"/></g></g><g transform="translate(400 100)"><g transform="translate(.215) scale(.0163)"><path d="M714.163 519.284L1160.89 0h-105.86L667.137 450.887 357.328 0H0l468.492 681.821L0 1226.37h105.866l409.625-476.152 327.181 476.152H1200L714.137 519.284h.026zM569.165 687.828l-47.468-67.894-377.686-540.24h162.604l304.797 435.991 47.468 67.894 396.2 566.721H892.476L569.165 687.854v-.026z" fill="#fff"/></g></g><g transform="translate(365 35)"><g transform="translate(.29) scale(.02202)"><path d="M714.163 519.284L1160.89 0h-105.86L667.137 450.887 357.328 0H0l468.492 681.821L0 1226.37h105.866l409.625-476.152 327.181 476.152H1200L714.137 519.284h.026zM569.165 687.828l-47.468-67.894-377.686-540.24h162.604l304.797 435.991 47.468 67.894 396.2 566.721H892.476L569.165 687.854v-.026z" fill="#fff"/></g></g><g transform="translate(0 395)"><title>upload</title><g><g><g><defs><path id="aB" d="M14 15H0v2h14v-2zm-6-4H6v2h2v-2zm0-3H6v2h2V8zm0-4.035L11.523 7.5 13 6.02 7 0 1 6.02 2.477 7.5 6 3.965V7h2V3.965z"/></defs><clipPath id="aC"><use xlink:href="#aB" overflow="visible"/></clipPath><g clip-path="url(#aC)"><g><defs><path id="aD" d="M0 0h14v17H0z"/></defs><clipPath id="aE"><use xlink:href="#aD" overflow="visible"/></clipPath><g clip-path="url(#aE)"><defs><path id="aF" d="M0 0h14v17H0z"/></defs><clipPath id="aG"><use xlink:href="#aF" overflow="visible"/></clipPath><g clip-path="url(#aG)"><defs><path id="aH" d="M0 0h14v17H0z"/></defs><clipPath id="aI"><use xlink:href="#aH" overflow="visible"/></clipPath><path clip-path="url(#aI)" fill="#00883A" d="M-5-5h24v27H-5z"/></g></g></g></g></g></g></g></g><title>Mask</title><defs><path id="aJ" d="M0 0h80v80H0z"/></defs><g fill="none" fill-rule="evenodd"><use fill-opacity=".9" fill="#626468" xlink:href="#aJ"/></g><g transform="translate(85)"><title>icon-video-big-black</title><g fill="none" fill-rule="evenodd"><g><g><g fill="#232323"><path d="M0 0h80v80H0z"/></g><path fill="#FFF" d="M50.716 40l-22 15V25z"/></g></g></g></g><g transform="translate(0 85)"><title>icon_video_big_green</title><g fill="none" fill-rule="evenodd"><path stroke="#00883A" stroke-width="2.963" d="M0 0h80v80H0z"/><path fill="#00883A" d="M54.47 40L27.804 57.778V22.222z"/></g></g><g transform="translate(400 125)"><defs><path id="aK" d="M0 0h16v16H0V0zm12 8L6 4v8l6-4z"/></defs><g fill="none" fill-rule="evenodd"><use fill="#232323" xlink:href="#aK"/></g></g><g transform="translate(365 70)"><title>icon-video-button-green</title><g fill="none" fill-rule="evenodd"><path stroke="#00883A" d="M0 0h27v27H0z"/><path fill="#00883A" d="M18.384 13.5l-9 6v-12z"/></g></g><g transform="translate(365 105)"><title>icon-video-button-white</title><g fill="none" fill-rule="evenodd"><path d="M0 0h27v27H0V0zm18.384 13.5l-9-6v12l9-6z" fill="#FFF"/></g></g><g transform="translate(400 150)"><defs><path id="aL" d="M0 0h16v16H0V0zm12 8L6 4v8l6-4z"/></defs><g fill="none" fill-rule="evenodd"><use fill="#00883A" xlink:href="#aL"/></g></g><g transform="translate(85 85)"><title>Mask</title><defs><path id="aM" d="M0 0h80v80H0z"/></defs><g fill="none" fill-rule="evenodd"><use fill-opacity=".9" fill="#FFF" xlink:href="#aM"/></g></g><g transform="translate(110 250)"><title>icon-video-liste-black</title><g fill="none" fill-rule="evenodd"><g><path fill="#232323" d="M0 0h50v50H0z"/><path fill="#FFF" d="M31.697 25l-13.75 9.375v-18.75z"/></g></g></g><g transform="translate(165 250)"><title>icon-video-liste-green</title><g fill="none" fill-rule="evenodd"><g><path fill="#FFF" d="M0 0h50v50H0z"/><path d="M1 1v48h48V1H1zM0 0h50v50H0V0z" fill="#00883A" fill-rule="nonzero"/><path fill="#00883A" d="M31.697 25l-13.75 9.375v-18.75z"/></g></g></g><g transform="translate(400 175)"><defs><path id="aN" d="M0 0h16v16H0V0zm12 8L6 4v8l6-4z"/></defs><g fill="none" fill-rule="evenodd"><use fill="#FFF" xlink:href="#aN"/></g></g><g transform="translate(365 140)"><g transform="translate(.221 -.014) scale(1.42249)"><path d="M3.741 15.415l.024.025.004.003a3.301 3.301 0 0 0 4.667 0l2.66-2.66-.76.178a2.868 2.868 0 0 1-1.792-.158l-.139-.06-1.077 1.079a1.382 1.382 0 0 1-1.948.002l-.009-.01-.006-.006a1.379 1.379 0 0 1 0-1.949L7.98 9.244a1.379 1.379 0 0 1 1.949 0l.006.006.007.007c.095.096.174.202.236.315l.143.258 1.681-1.68-.464-.527a3.301 3.301 0 0 0-4.667 0L3.744 10.75a3.303 3.303 0 0 0-.003 4.665zM13.995 5.178l.013.014a1.379 1.379 0 0 1 0 1.949l-2.615 2.615a1.377 1.377 0 0 1-1.936.012l-.034-.032a1.428 1.428 0 0 1-.228-.308l-.143-.258-1.681 1.68.464.527a3.301 3.301 0 0 0 4.667 0l3.127-3.127a3.303 3.303 0 0 0 .003-4.665l-.024-.024-.004-.004a3.301 3.301 0 0 0-4.667 0l-2.66 2.66.76-.178a2.868 2.868 0 0 1 1.792.158l.138.06 1.079-1.079a1.38 1.38 0 0 1 1.949 0z" fill="#0f1987"/></g></g><g transform="translate(365 175)"><g transform="translate(.221 -.014) scale(1.42249)"><path d="M3.741 15.415l.024.025.004.003a3.301 3.301 0 0 0 4.667 0l2.66-2.66-.76.178a2.868 2.868 0 0 1-1.792-.158l-.139-.06-1.077 1.079a1.382 1.382 0 0 1-1.948.002l-.009-.01-.006-.006a1.379 1.379 0 0 1 0-1.949L7.98 9.244a1.379 1.379 0 0 1 1.949 0l.006.006.007.007c.095.096.174.202.236.315l.143.258 1.681-1.68-.464-.527a3.301 3.301 0 0 0-4.667 0L3.744 10.75a3.303 3.303 0 0 0-.003 4.665zM13.995 5.178l.013.014a1.379 1.379 0 0 1 0 1.949l-2.615 2.615a1.377 1.377 0 0 1-1.936.012l-.034-.032a1.428 1.428 0 0 1-.228-.308l-.143-.258-1.681 1.68.464.527a3.301 3.301 0 0 0 4.667 0l3.127-3.127a3.303 3.303 0 0 0 .003-4.665l-.024-.024-.004-.004a3.301 3.301 0 0 0-4.667 0l-2.66 2.66.76-.178a2.868 2.868 0 0 1 1.792.158l.138.06 1.079-1.079a1.38 1.38 0 0 1 1.949 0z" fill="#00883a"/></g></g><g transform="translate(400 200)"><g transform="translate(.164 -.01) scale(1.0537)"><path d="M3.741 15.415l.024.025.004.003a3.301 3.301 0 0 0 4.667 0l2.66-2.66-.76.178a2.868 2.868 0 0 1-1.792-.158l-.139-.06-1.077 1.079a1.382 1.382 0 0 1-1.948.002l-.009-.01-.006-.006a1.379 1.379 0 0 1 0-1.949L7.98 9.244a1.379 1.379 0 0 1 1.949 0l.006.006.007.007c.095.096.174.202.236.315l.143.258 1.681-1.68-.464-.527a3.301 3.301 0 0 0-4.667 0L3.744 10.75a3.303 3.303 0 0 0-.003 4.665zM13.995 5.178l.013.014a1.379 1.379 0 0 1 0 1.949l-2.615 2.615a1.377 1.377 0 0 1-1.936.012l-.034-.032a1.428 1.428 0 0 1-.228-.308l-.143-.258-1.681 1.68.464.527a3.301 3.301 0 0 0 4.667 0l3.127-3.127a3.303 3.303 0 0 0 .003-4.665l-.024-.024-.004-.004a3.301 3.301 0 0 0-4.667 0l-2.66 2.66.76-.178a2.868 2.868 0 0 1 1.792.158l.138.06 1.079-1.079a1.38 1.38 0 0 1 1.949 0z" fill="#0f1987"/></g></g><g transform="translate(400 225)"><g transform="translate(.164 -.01) scale(1.0537)"><path d="M3.741 15.415l.024.025.004.003a3.301 3.301 0 0 0 4.667 0l2.66-2.66-.76.178a2.868 2.868 0 0 1-1.792-.158l-.139-.06-1.077 1.079a1.382 1.382 0 0 1-1.948.002l-.009-.01-.006-.006a1.379 1.379 0 0 1 0-1.949L7.98 9.244a1.379 1.379 0 0 1 1.949 0l.006.006.007.007c.095.096.174.202.236.315l.143.258 1.681-1.68-.464-.527a3.301 3.301 0 0 0-4.667 0L3.744 10.75a3.303 3.303 0 0 0-.003 4.665zM13.995 5.178l.013.014a1.379 1.379 0 0 1 0 1.949l-2.615 2.615a1.377 1.377 0 0 1-1.936.012l-.034-.032a1.428 1.428 0 0 1-.228-.308l-.143-.258-1.681 1.68.464.527a3.301 3.301 0 0 0 4.667 0l3.127-3.127a3.303 3.303 0 0 0 .003-4.665l-.024-.024-.004-.004a3.301 3.301 0 0 0-4.667 0l-2.66 2.66.76-.178a2.868 2.868 0 0 1 1.792.158l.138.06 1.079-1.079a1.38 1.38 0 0 1 1.949 0z" fill="#00883a"/></g></g><g transform="translate(400 250)"><g transform="translate(.164 -.01) scale(1.0537)"><path d="M3.741 15.415l.024.025.004.003a3.301 3.301 0 0 0 4.667 0l2.66-2.66-.76.178a2.868 2.868 0 0 1-1.792-.158l-.139-.06-1.077 1.079a1.382 1.382 0 0 1-1.948.002l-.009-.01-.006-.006a1.379 1.379 0 0 1 0-1.949L7.98 9.244a1.379 1.379 0 0 1 1.949 0l.006.006.007.007c.095.096.174.202.236.315l.143.258 1.681-1.68-.464-.527a3.301 3.301 0 0 0-4.667 0L3.744 10.75a3.303 3.303 0 0 0-.003 4.665zM13.995 5.178l.013.014a1.379 1.379 0 0 1 0 1.949l-2.615 2.615a1.377 1.377 0 0 1-1.936.012l-.034-.032a1.428 1.428 0 0 1-.228-.308l-.143-.258-1.681 1.68.464.527a3.301 3.301 0 0 0 4.667 0l3.127-3.127a3.303 3.303 0 0 0 .003-4.665l-.024-.024-.004-.004a3.301 3.301 0 0 0-4.667 0l-2.66 2.66.76-.178a2.868 2.868 0 0 1 1.792.158l.138.06 1.079-1.079a1.38 1.38 0 0 1 1.949 0z" fill="#fff"/></g></g><g transform="translate(365 210)"><g transform="translate(.221 -.014) scale(1.42249)"><path d="M3.741 15.415l.024.025.004.003a3.301 3.301 0 0 0 4.667 0l2.66-2.66-.76.178a2.868 2.868 0 0 1-1.792-.158l-.139-.06-1.077 1.079a1.382 1.382 0 0 1-1.948.002l-.009-.01-.006-.006a1.379 1.379 0 0 1 0-1.949L7.98 9.244a1.379 1.379 0 0 1 1.949 0l.006.006.007.007c.095.096.174.202.236.315l.143.258 1.681-1.68-.464-.527a3.301 3.301 0 0 0-4.667 0L3.744 10.75a3.303 3.303 0 0 0-.003 4.665zM13.995 5.178l.013.014a1.379 1.379 0 0 1 0 1.949l-2.615 2.615a1.377 1.377 0 0 1-1.936.012l-.034-.032a1.428 1.428 0 0 1-.228-.308l-.143-.258-1.681 1.68.464.527a3.301 3.301 0 0 0 4.667 0l3.127-3.127a3.303 3.303 0 0 0 .003-4.665l-.024-.024-.004-.004a3.301 3.301 0 0 0-4.667 0l-2.66 2.66.76-.178a2.868 2.868 0 0 1 1.792.158l.138.06 1.079-1.079a1.38 1.38 0 0 1 1.949 0z" fill="#fff"/></g></g><g transform="translate(310 55)"><defs><path id="aO" d="M18.988 0S7.112 0 4.131.786C2.535 1.24 1.22 2.574.775 4.218 0 7.244 0 13.512 0 13.512s0 6.291.775 9.27c.446 1.644 1.736 2.955 3.356 3.408 3.004.81 14.857.81 14.857.81s11.9 0 14.881-.786a4.76 4.76 0 0 0 3.333-3.408c.798-3.003.798-9.27.798-9.27s.023-6.292-.798-9.318c-.423-1.644-1.713-2.955-3.333-3.384C30.89 0 18.99 0 18.99 0zM15.21 7.721l9.882 5.79-9.882 5.768V7.72z"/></defs><g fill="none" fill-rule="evenodd"><use fill="#0F1987" fill-rule="nonzero" xlink:href="#aO"/></g></g><g transform="translate(310 90)"><defs><path id="aP" d="M18.988 0S7.112 0 4.131.786C2.535 1.24 1.22 2.574.775 4.218 0 7.244 0 13.512 0 13.512s0 6.291.775 9.27c.446 1.644 1.736 2.955 3.356 3.408 3.004.81 14.857.81 14.857.81s11.9 0 14.881-.786a4.76 4.76 0 0 0 3.333-3.408c.798-3.003.798-9.27.798-9.27s.023-6.292-.798-9.318c-.423-1.644-1.713-2.955-3.333-3.384C30.89 0 18.99 0 18.99 0zM15.21 7.721l9.882 5.79-9.882 5.768V7.72z"/></defs><g fill="none" fill-rule="evenodd"><use fill="#FFF" fill-rule="nonzero" xlink:href="#aP"/></g></g><g transform="translate(220 250)"><title>icon_meldung</title><g fill="none" fill-rule="evenodd"><g transform="translate(-102 -1533)"><g transform="translate(0 1283)"><g transform="translate(102 250)"><g><path fill="#232323" d="M0 0h50v50H0z"/><g transform="translate(4 8)" stroke="#FFF" stroke-width="2"><path d="M21.091 7.923L8.764 21.152l2.765 4.753 17.8-4.18zm3.05-2.883l9.326 15.604m-2.473-18.36L28.19 5.769m7.542 2.037l-4.04 2.59m2.768 4.322l4.34-.929m-15.386 9.687l.768 2.656-6.476 1.66-.768-2.822M6 23l2.848 5.079"/></g></g></g></g></g></g></g><g transform="translate(425 100)"><title>icon_can</title><defs><path d="M1.527 3.824v1.528h9.94V3.823h-9.94zM.765 6.882H0V2.294h3.059V0H9.94v2.294H13v4.588h-.765v8.412H.765V6.882zM4.588 1.53v.765h3.824V1.53H4.588zM2.294 6.882v6.883h8.412V6.882H2.294z" id="aQ"/></defs><g fill="none" fill-rule="evenodd"><g transform="translate(-907 -1159)"><g transform="translate(0 777)"><g transform="translate(456 147)"><g transform="translate(451 235)"><mask id="aR" fill="#fff"><use xlink:href="#aQ"/></mask><use fill="#FF4242" fill-rule="nonzero" xlink:href="#aQ"/><g mask="url(#aR)" fill="#E42828"><path d="M0 0h12.967v14.962H0z"/></g></g></g></g></g></g></g><g transform="translate(310)"><title>Event</title><defs><path d="M22 5H8v2H5V5H2v25h26V5h-3v2h-3V5zm0-2V0h3v3h5v29H0V3h5V0h3v3h14zM6 16h18v2H6v-2zm0 4h18v2H6v-2zm4-8h14v2H10v-2zM6 24h11v2H6v-2z" id="aS"/></defs><g fill="none" fill-rule="evenodd"><g transform="translate(-102 -1451)"><g transform="translate(0 1283)"><g transform="translate(102 168)"><g><path fill="#232323" d="M0 0h50v50H0z"/><g transform="translate(10 9)"><mask id="aT" fill="#fff"><use xlink:href="#aS"/></mask><use fill="#232323" xlink:href="#aS"/><g mask="url(#aT)" fill="#FFF"><path d="M0 0h31v32H0z"/></g></g></g></g></g></g></g></g></svg>